<svg width="20" height="20" viewBox="0 0 20 20" fill="none" xmlns="http://www.w3.org/2000/svg">
<path d="M15 19H6C4.34315 19 3 17.6569 3 16V4C3 2.34315 4.34315 1 6 1H15C16.6569 1 18 2.34315 18 4V16C18 17.6569 16.6569 19 15 19Z" stroke="black" stroke-width="2"/>
<path d="M13 12.5C13 13.8807 11.8807 15 10.5 15C9.11929 15 8 13.8807 8 12.5C8 11.1193 9.11929 10 10.5 10C11.8807 10 13 11.1193 13 12.5Z" stroke="black" stroke-width="2"/>
<path d="M12 5.5C12 6.32843 11.3284 7 10.5 7C9.67157 7 9 6.32843 9 5.5C9 4.67157 9.67157 4 10.5 4C11.3284 4 12 4.67157 12 5.5Z" fill="black"/>
</svg>
