<svg width="25" height="26" viewBox="0 0 25 26" fill="none" xmlns="http://www.w3.org/2000/svg">
<path d="M6.12695 22.9531C6.12695 24.0577 5.23152 24.9531 4.12695 24.9531C3.02238 24.9531 2.12695 24.0577 2.12695 22.9531C2.12695 21.8486 3.02238 20.9531 4.12695 20.9531C5.23152 20.9531 6.12695 21.8486 6.12695 22.9531Z" stroke="black" stroke-width="2"/>
<path d="M21.127 22.9531C21.127 24.0577 20.2315 24.9531 19.127 24.9531C18.0224 24.9531 17.127 24.0577 17.127 22.9531C17.127 21.8486 18.0224 20.9531 19.127 20.9531C20.2315 20.9531 21.127 21.8486 21.127 22.9531Z" stroke="black" stroke-width="2"/>
<path d="M1 8.98437C1 7.8798 1.89543 6.98438 3 6.98438H19C20.1046 6.98438 21 7.87981 21 8.98438V14.42C21 17.6413 17.9986 20.022 14.8619 19.2888L4.86185 16.9511C2.59987 16.4223 1 14.4053 1 12.0824V8.98437Z" stroke="black" stroke-width="2"/>
<path d="M25 1.98438H22C21.4477 1.98438 21 2.43209 21 2.98437V12.9844" stroke="black" stroke-width="2"/>
<path d="M6 22.9844L17 22.9844" stroke="black" stroke-width="2"/>
</svg>
