<svg width="67" height="50" viewBox="0 0 67 50" fill="none" xmlns="http://www.w3.org/2000/svg">
<rect x="0.60788" width="66" height="50" rx="10" fill="#199D0F"/>
<rect x="0.60788" width="66" height="50" rx="10" fill="#2AA1DD"/>
<g clip-path="url(#clip0)">
<path d="M33.6079 7C23.6638 7 15.6079 15.057 15.6079 25C15.6079 34.943 23.6649 43 33.6079 43C43.552 43 51.6079 34.943 51.6079 25C51.6079 15.057 43.5508 7 33.6079 7ZM42.4488 19.3317L39.4945 33.2533C39.2761 34.2404 38.6885 34.4796 37.8687 34.0151L33.3687 30.6985L31.1982 32.7888C30.959 33.028 30.7558 33.2312 30.2912 33.2312L30.6106 28.6511L38.9498 21.1166C39.3133 20.7973 38.8697 20.6161 38.3901 20.9355L28.0836 27.4236L23.6417 26.037C22.6767 25.7328 22.6546 25.072 23.8449 24.6075L41.1992 17.915C42.0052 17.6246 42.7089 18.1112 42.4476 19.3306L42.4488 19.3317Z" fill="white"/>
</g>
<defs>
<clipPath id="clip0">
<rect width="36" height="36" fill="white" transform="translate(15.6079 7)"/>
</clipPath>
</defs>
</svg>
