<svg width="67" height="50" viewBox="0 0 67 50" fill="none" xmlns="http://www.w3.org/2000/svg">
<rect x="0.60788" width="66" height="50" rx="10" fill="#7B40AD"/>
<g clip-path="url(#clip0)">
<path d="M47.3272 34.7463C45.7131 36.1746 43.374 37.199 40.3096 37.8195C37.2453 38.44 34.0874 38.6215 30.8359 38.3639L24.6605 43V37.2049C22.6254 36.5727 21.0348 35.7532 19.8886 34.7463C18.5319 33.5522 17.4792 31.8371 16.7307 29.601C15.9821 27.3649 15.6079 25.082 15.6079 22.7522C15.6079 20.4224 15.9821 18.1395 16.7307 15.9034C17.4792 13.6673 18.5377 11.9463 19.9061 10.7405C21.2745 9.53463 23.2336 8.60976 25.7833 7.96585C28.333 7.32195 30.9412 7 33.6079 7C36.2745 7 38.8827 7.32195 41.4324 7.96585C43.9821 8.60976 45.9412 9.53463 47.3096 10.7405C48.6781 11.9463 49.7365 13.6673 50.4851 15.9034C51.2336 18.1395 51.6079 20.4224 51.6079 22.7522C51.6079 25.082 51.2336 27.3649 50.4851 29.601C49.7365 31.8371 48.6839 33.5522 47.3272 34.7463ZM38.0289 26.1415L40.3096 26.5278C40.1225 23.718 39.0406 21.318 37.064 19.3278C35.0874 17.3376 32.6956 16.2488 29.8886 16.0615L30.2745 18.3444C32.2862 18.602 34.0172 19.4566 35.4675 20.9083C36.9178 22.36 37.7716 24.1044 38.0289 26.1415ZM30.6605 20.6976L31.0816 23.2263C32.0172 23.6946 32.7073 24.3854 33.1517 25.2985L35.6781 25.72C35.3974 24.479 34.8009 23.4078 33.8886 22.5063C32.9763 21.6049 31.9003 21.002 30.6605 20.6976ZM26.9061 22.7698V20.522C26.9061 20.1239 26.7599 19.7259 26.4675 19.3278C26.1751 18.9298 25.8652 18.6429 25.5377 18.4673C25.2102 18.2917 24.9646 18.2741 24.8009 18.4146L23.1868 20.0654C22.2745 20.9785 22.14 22.401 22.7833 24.3327C23.4266 26.2644 24.6547 28.1376 26.4675 29.9522C28.2804 31.7668 30.1517 32.9961 32.0816 33.64C34.0114 34.2839 35.4207 34.1493 36.3096 33.2361L37.9588 31.5854C38.1225 31.4449 38.1167 31.2049 37.9412 30.8654C37.7658 30.5259 37.4792 30.2156 37.0816 29.9346C36.6839 29.6537 36.2862 29.5132 35.8886 29.5132H33.643L32.3447 30.6371C31.3155 30.3561 30.0348 29.4488 28.5026 27.9151C26.9705 26.3815 26.064 25.0878 25.7833 24.0341L26.9061 22.7698ZM29.1517 11.5307L29.5026 13.8137C31.8418 13.8605 34.0055 14.4751 35.9938 15.6576C37.9821 16.84 39.5611 18.4205 40.7307 20.399C41.9003 22.3776 42.5202 24.5376 42.5903 26.879L44.871 27.2654C44.871 25.1346 44.4558 23.0976 43.6254 21.1541C42.795 19.2107 41.6781 17.5366 40.2745 16.1317C38.871 14.7268 37.1985 13.6088 35.257 12.7776C33.3155 11.9463 31.2804 11.5307 29.1517 11.5307Z" fill="white"/>
</g>
<defs>
<clipPath id="clip0">
<rect width="36" height="36" fill="white" transform="translate(15.6079 7)"/>
</clipPath>
</defs>
</svg>
