<svg width="67" height="50" viewBox="0 0 67 50" fill="none" xmlns="http://www.w3.org/2000/svg">
<rect x="0.60788" width="66" height="50" rx="10" fill="#199D0F"/>
<rect x="0.60788" width="66" height="50" rx="10" fill="#3BB84C"/>
<g clip-path="url(#clip0)">
<path d="M17.2651 41.254L19.5671 32.8914C18.1476 30.4385 17.4009 27.6568 17.4019 24.8256C17.4019 15.9257 24.6784 8.68567 33.6047 8.68567C37.9433 8.68567 42.0082 10.3694 45.0668 13.4161C48.1254 16.4629 49.8078 20.52 49.8078 24.8336C49.8078 33.7333 42.5313 40.9733 33.6049 40.9733H33.5969C30.8842 40.9733 28.2199 40.2918 25.8535 39.009L17.2651 41.2542V41.254Z" fill="white"/>
<path d="M29.4109 17.8266C29.0969 17.129 28.7668 17.1129 28.4691 17.1049C28.2277 17.0969 27.946 17.0969 27.6642 17.0969C27.3825 17.0969 26.9317 17.2011 26.5454 17.618C26.1589 18.035 25.0803 19.0453 25.0803 21.106C25.0803 23.1584 26.5856 25.1468 26.7948 25.4274C27.0041 25.7081 29.7006 30.0617 33.9585 31.7374C37.5002 33.1326 38.2247 32.8519 38.9893 32.7798C39.762 32.7076 41.4685 31.7695 41.8226 30.7914C42.1687 29.8132 42.1687 28.9793 42.064 28.8029C41.9594 28.6265 41.6777 28.5224 41.2591 28.3138C40.8406 28.1054 38.78 27.0951 38.3937 26.9508C38.0073 26.8066 37.7256 26.7424 37.4519 27.1593C37.1701 27.5761 36.3653 28.5142 36.1237 28.795C35.8823 29.0755 35.6328 29.1076 35.2142 28.8992C34.7957 28.6907 33.4434 28.2496 31.8417 26.8225C30.5941 25.7161 29.7489 24.345 29.5073 23.9281C29.2659 23.5112 29.4833 23.2865 29.6925 23.0782C29.8776 22.8938 30.111 22.5891 30.3204 22.3486C30.5297 22.1081 30.6021 21.9317 30.7389 21.651C30.8758 21.3704 30.8114 21.1299 30.7067 20.9215C30.6021 20.7129 29.7811 18.6523 29.4109 17.8266Z" fill="#3BB84C"/>
</g>
<defs>
<clipPath id="clip0">
<rect width="36" height="36" fill="white" transform="translate(15.6079 7)"/>
</clipPath>
</defs>
</svg>
