<svg width="40" height="41" viewBox="0 0 40 41" fill="none" xmlns="http://www.w3.org/2000/svg">
<rect y="0.967529" width="40" height="40" rx="20" fill="#F6F7F9"/>
<path d="M9 16.8439C9 13.0732 12.0568 10.0164 15.8276 10.0164H24.1724C27.9432 10.0164 31 13.0732 31 16.8439V25.1888C31 28.9595 27.9432 32.0164 24.1724 32.0164H15.8276C12.0568 32.0164 9 28.9595 9 25.1888V16.8439Z" stroke="black" stroke-width="3"/>
<path d="M15.069 21.0164C15.069 18.293 17.2767 16.0853 20 16.0853C22.7233 16.0853 24.931 18.293 24.931 21.0164C24.931 23.7397 22.7233 25.9474 20 25.9474C17.2767 25.9474 15.069 23.7397 15.069 21.0164Z" stroke="black" stroke-width="3"/>
<rect x="25" y="13.0164" width="3" height="3" rx="1.5" fill="black"/>
</svg>
