<svg width="56" height="20" viewBox="0 0 56 20" fill="none" xmlns="http://www.w3.org/2000/svg">
<path fill-rule="evenodd" clip-rule="evenodd" d="M52.6573 16.3799C53.2305 16.3799 54.0104 16.3799 54.7897 16.3799L56 19.8912C54.1571 19.8912 55.4575 19.8912 52.6575 19.8912C49.4878 19.8912 46.9182 17.4142 46.9182 14.3586C46.9182 11.3032 46.9182 6.54259 46.9182 6.54259L50.5571 4.53071C50.5571 4.53071 50.5673 7.45978 50.576 10.1422H52.6395L53.9254 13.8726L50.5871 13.8893C50.5876 14.1123 50.5877 14.2819 50.5877 14.3847C50.5877 15.4866 51.5144 16.3799 52.6573 16.3799ZM41.4829 19.9408C39.0354 20.0973 35.3743 19.7757 35.3743 19.7757L35.9132 16.2764C35.9132 16.2764 40.8219 16.4816 41.2717 16.4529C41.5855 16.4328 42.0856 16.3907 42.0655 16.0618C42.049 15.7902 41.8933 15.7642 40.9432 15.4989C39.4326 15.0632 39.1305 15.2259 37.5373 14.6344C36.0424 14.0792 35.2814 12.866 35.1905 11.3734C35.0467 9.0139 36.1464 7.40296 39.3853 7.19622C41.833 7.03979 45.166 7.35633 45.166 7.35633L44.4812 10.8536C44.4812 10.8536 40.1198 10.6491 39.6699 10.6778C39.2201 10.7066 38.7925 10.7423 38.8131 11.0783C38.8416 11.547 39.4708 11.6874 39.9738 11.8006C41.5591 12.2613 41.7855 12.1637 42.9375 12.5339C44.765 13.1211 45.5717 14.0227 45.6853 15.8897C45.8291 18.2492 44.5969 19.7421 41.4829 19.9408ZM28.1276 19.8912C24.9579 19.8912 22.3885 17.4142 22.3885 14.3586C22.3885 11.3032 22.3885 8.98983 22.3885 8.98983L26.0272 6.97795C26.0272 6.97795 26.0581 13.283 26.0581 14.3847C26.0581 15.4866 26.9846 16.3799 28.1276 16.3799C29.2705 16.3799 30.1972 15.4866 30.1972 14.3847C30.1972 13.283 30.2282 8.98983 30.2282 8.98983L33.8669 6.97795C33.8669 6.97795 33.8669 11.3032 33.8669 14.3586C33.8669 17.4142 31.2973 19.8912 28.1276 19.8912ZM15.7661 19.871L14.5626 16.3799C14.8259 16.3799 15.0767 16.3799 15.2923 16.3799C16.4354 16.3799 17.3619 15.4866 17.3619 14.3847C17.3619 13.283 17.3929 8.98983 17.3929 8.98983L21.0318 6.97795C21.0318 6.97795 21.0318 11.3032 21.0318 14.3586C21.0318 17.2603 18.714 19.6385 15.7661 19.871ZM5.30177 14.3586C5.30177 11.3032 5.30177 6.54259 5.30177 6.54259L8.94067 4.53071C8.94067 4.53071 8.95095 7.45978 8.9596 10.1422H11.0231L12.309 13.8726L8.97054 13.8893C8.97103 14.1123 8.97135 14.2819 8.97135 14.3847C8.97135 15.4866 9.89801 16.3799 11.0409 16.3799C11.6141 16.3799 12.394 16.3799 13.1733 16.3799L14.3836 19.8912C12.5407 19.8912 13.8411 19.8912 11.0411 19.8912C7.87137 19.8912 5.30177 17.4142 5.30177 14.3586ZM0 9.03094L3.6296 7.01923V19.8341H0V9.03094ZM0 5.00735L3.6296 0.983765V5.08072L0 7.49488V5.00735Z" fill="#ACB8CA"/>
<path fill-rule="evenodd" clip-rule="evenodd" d="M52.6573 16.3799C53.2305 16.3799 54.0104 16.3799 54.7897 16.3799L56 19.8912C54.1571 19.8912 55.4575 19.8912 52.6575 19.8912C49.4878 19.8912 46.9182 17.4142 46.9182 14.3586C46.9182 11.3032 46.9182 6.54259 46.9182 6.54259L50.5571 4.53071C50.5571 4.53071 50.5673 7.45978 50.576 10.1422H52.6395L53.9254 13.8726L50.5871 13.8893C50.5876 14.1123 50.5877 14.2819 50.5877 14.3847C50.5877 15.4866 51.5144 16.3799 52.6573 16.3799ZM41.4829 19.9408C39.0354 20.0973 35.3743 19.7757 35.3743 19.7757L35.9132 16.2764C35.9132 16.2764 40.8219 16.4816 41.2717 16.4529C41.5855 16.4328 42.0856 16.3907 42.0655 16.0618C42.049 15.7902 41.8933 15.7642 40.9432 15.4989C39.4326 15.0632 39.1305 15.2259 37.5373 14.6344C36.0424 14.0792 35.2814 12.866 35.1905 11.3734C35.0467 9.0139 36.1464 7.40296 39.3853 7.19622C41.833 7.03979 45.166 7.35633 45.166 7.35633L44.4812 10.8536C44.4812 10.8536 40.1198 10.6491 39.6699 10.6778C39.2201 10.7066 38.7925 10.7423 38.8131 11.0783C38.8416 11.547 39.4708 11.6874 39.9738 11.8006C41.5591 12.2613 41.7855 12.1637 42.9375 12.5339C44.765 13.1211 45.5717 14.0227 45.6853 15.8897C45.8291 18.2492 44.5969 19.7421 41.4829 19.9408ZM28.1276 19.8912C24.9579 19.8912 22.3885 17.4142 22.3885 14.3586C22.3885 11.3032 22.3885 8.98983 22.3885 8.98983L26.0272 6.97795C26.0272 6.97795 26.0581 13.283 26.0581 14.3847C26.0581 15.4866 26.9846 16.3799 28.1276 16.3799C29.2705 16.3799 30.1972 15.4866 30.1972 14.3847C30.1972 13.283 30.2282 8.98983 30.2282 8.98983L33.8669 6.97795C33.8669 6.97795 33.8669 11.3032 33.8669 14.3586C33.8669 17.4142 31.2973 19.8912 28.1276 19.8912ZM15.7661 19.871L14.5626 16.3799C14.8259 16.3799 15.0767 16.3799 15.2923 16.3799C16.4354 16.3799 17.3619 15.4866 17.3619 14.3847C17.3619 13.283 17.3929 8.98983 17.3929 8.98983L21.0318 6.97795C21.0318 6.97795 21.0318 11.3032 21.0318 14.3586C21.0318 17.2603 18.714 19.6385 15.7661 19.871ZM5.30177 14.3586C5.30177 11.3032 5.30177 6.54259 5.30177 6.54259L8.94067 4.53071C8.94067 4.53071 8.95095 7.45978 8.9596 10.1422H11.0231L12.309 13.8726L8.97054 13.8893C8.97103 14.1123 8.97135 14.2819 8.97135 14.3847C8.97135 15.4866 9.89801 16.3799 11.0409 16.3799C11.6141 16.3799 12.394 16.3799 13.1733 16.3799L14.3836 19.8912C12.5407 19.8912 13.8411 19.8912 11.0411 19.8912C7.87137 19.8912 5.30177 17.4142 5.30177 14.3586ZM0 9.03094L3.6296 7.01923V19.8341H0V9.03094ZM0 5.00735L3.6296 0.983765V5.08072L0 7.49488V5.00735Z" fill="#909EB7"/>
<path fill-rule="evenodd" clip-rule="evenodd" d="M52.6573 16.3799C53.2305 16.3799 54.0104 16.3799 54.7897 16.3799L56 19.8912C54.1571 19.8912 55.4575 19.8912 52.6575 19.8912C49.4878 19.8912 46.9182 17.4142 46.9182 14.3586C46.9182 11.3032 46.9182 6.54259 46.9182 6.54259L50.5571 4.53071C50.5571 4.53071 50.5673 7.45978 50.576 10.1422H52.6395L53.9254 13.8726L50.5871 13.8893C50.5876 14.1123 50.5877 14.2819 50.5877 14.3847C50.5877 15.4866 51.5144 16.3799 52.6573 16.3799ZM41.4829 19.9408C39.0354 20.0973 35.3743 19.7757 35.3743 19.7757L35.9132 16.2764C35.9132 16.2764 40.8219 16.4816 41.2717 16.4529C41.5855 16.4328 42.0856 16.3907 42.0655 16.0618C42.049 15.7902 41.8933 15.7642 40.9432 15.4989C39.4326 15.0632 39.1305 15.2259 37.5373 14.6344C36.0424 14.0792 35.2814 12.866 35.1905 11.3734C35.0467 9.0139 36.1464 7.40296 39.3853 7.19622C41.833 7.03979 45.166 7.35633 45.166 7.35633L44.4812 10.8536C44.4812 10.8536 40.1198 10.6491 39.6699 10.6778C39.2201 10.7066 38.7925 10.7423 38.8131 11.0783C38.8416 11.547 39.4708 11.6874 39.9738 11.8006C41.5591 12.2613 41.7855 12.1637 42.9375 12.5339C44.765 13.1211 45.5717 14.0227 45.6853 15.8897C45.8291 18.2492 44.5969 19.7421 41.4829 19.9408ZM28.1276 19.8912C24.9579 19.8912 22.3885 17.4142 22.3885 14.3586C22.3885 11.3032 22.3885 8.98983 22.3885 8.98983L26.0272 6.97795C26.0272 6.97795 26.0581 13.283 26.0581 14.3847C26.0581 15.4866 26.9846 16.3799 28.1276 16.3799C29.2705 16.3799 30.1972 15.4866 30.1972 14.3847C30.1972 13.283 30.2282 8.98983 30.2282 8.98983L33.8669 6.97795C33.8669 6.97795 33.8669 11.3032 33.8669 14.3586C33.8669 17.4142 31.2973 19.8912 28.1276 19.8912ZM15.7661 19.871L14.5626 16.3799C14.8259 16.3799 15.0767 16.3799 15.2923 16.3799C16.4354 16.3799 17.3619 15.4866 17.3619 14.3847C17.3619 13.283 17.3929 8.98983 17.3929 8.98983L21.0318 6.97795C21.0318 6.97795 21.0318 11.3032 21.0318 14.3586C21.0318 17.2603 18.714 19.6385 15.7661 19.871ZM5.30177 14.3586C5.30177 11.3032 5.30177 6.54259 5.30177 6.54259L8.94067 4.53071C8.94067 4.53071 8.95095 7.45978 8.9596 10.1422H11.0231L12.309 13.8726L8.97054 13.8893C8.97103 14.1123 8.97135 14.2819 8.97135 14.3847C8.97135 15.4866 9.89801 16.3799 11.0409 16.3799C11.6141 16.3799 12.394 16.3799 13.1733 16.3799L14.3836 19.8912C12.5407 19.8912 13.8411 19.8912 11.0411 19.8912C7.87137 19.8912 5.30177 17.4142 5.30177 14.3586ZM0 9.03094L3.6296 7.01923V19.8341H0V9.03094ZM0 5.00735L3.6296 0.983765V5.08072L0 7.49488V5.00735Z" fill="#9A9A9A"/>
</svg>
