<svg width="237" height="13" viewBox="0 0 237 13" fill="none" xmlns="http://www.w3.org/2000/svg">
<path fill-rule="evenodd" clip-rule="evenodd" d="M205.143 0.625837C205.143 0.861551 205.183 1.05441 205.231 1.05441C205.279 1.05441 205.318 1.13155 205.318 1.22584C205.318 1.32012 205.358 1.39727 205.406 1.39727C205.454 1.39727 205.493 1.45684 205.493 1.52969C205.493 1.70121 205.883 2.08298 206.058 2.08298C206.133 2.08298 206.193 2.12155 206.193 2.16869C206.193 2.21584 206.272 2.25441 206.369 2.25441C206.465 2.25441 206.544 2.29298 206.544 2.34012C206.544 2.38727 206.74 2.42584 206.981 2.42584C207.222 2.42584 207.419 2.46441 207.419 2.51155C207.419 2.55869 207.537 2.59727 207.681 2.59727C207.826 2.59727 207.944 2.55869 207.944 2.51155C207.944 2.46441 208.141 2.42584 208.381 2.42584C208.622 2.42584 208.819 2.38727 208.819 2.34012C208.819 2.29298 208.898 2.25441 208.994 2.25441C209.09 2.25441 209.169 2.21584 209.169 2.16869C209.169 2.12155 209.23 2.08298 209.303 2.08298C209.478 2.08298 210.044 1.5279 210.044 1.35724C210.044 1.28498 210.084 1.22584 210.132 1.22584C210.18 1.22584 210.219 0.997237 210.219 0.711551V0.197266H209.519H208.819V0.454408C208.819 0.595837 208.78 0.711551 208.732 0.711551C208.683 0.711551 208.644 0.788694 208.644 0.88298C208.644 0.997237 208.586 1.05441 208.469 1.05441C208.373 1.05441 208.294 1.09298 208.294 1.14012C208.294 1.18855 208.045 1.22584 207.721 1.22584C207.23 1.22584 207.118 1.19601 206.933 1.01541C206.815 0.899693 206.719 0.745407 206.719 0.67255C206.719 0.599693 206.679 0.540123 206.631 0.540123C206.583 0.540123 206.544 0.46298 206.544 0.368694C206.544 0.21158 206.485 0.197266 205.843 0.197266H205.143V0.625837ZM14.2874 2.89692C14.2273 2.96386 14.178 3.11669 14.178 3.23652C14.178 3.35635 14.1386 3.45441 14.0905 3.45441C14.0423 3.45441 14.003 3.53155 14.003 3.62584C14.003 3.72012 13.9636 3.79727 13.9154 3.79727C13.8673 3.79727 13.8279 3.91298 13.8279 4.05441C13.8279 4.19584 13.7885 4.31155 13.7404 4.31155C13.6923 4.31155 13.6529 4.42727 13.6529 4.56869C13.6529 4.71012 13.6135 4.82584 13.5654 4.82584C13.5172 4.82584 13.4778 4.90298 13.4778 4.99727C13.4778 5.09155 13.4385 5.16869 13.3903 5.16869C13.3422 5.16869 13.3028 5.28441 13.3028 5.42584C13.3028 5.56727 13.2634 5.68298 13.2153 5.68298C13.1672 5.68298 13.1278 5.76012 13.1278 5.85441C13.1278 5.94869 13.0884 6.02584 13.0403 6.02584C12.9921 6.02584 12.9527 6.14155 12.9527 6.28298C12.9527 6.42441 12.9133 6.54012 12.8652 6.54012C12.8171 6.54012 12.7777 6.61727 12.7777 6.71155C12.7777 6.80584 12.7383 6.88298 12.6902 6.88298C12.642 6.88298 12.6027 6.99869 12.6027 7.14012C12.6027 7.28155 12.5633 7.39727 12.5151 7.39727C12.467 7.39727 12.4276 7.51298 12.4276 7.65441C12.4276 7.79584 12.3882 7.91155 12.3401 7.91155C12.292 7.91155 12.2526 7.98869 12.2526 8.08298C12.2526 8.17727 12.2132 8.25441 12.1651 8.25441C12.1169 8.25441 12.0775 8.37012 12.0775 8.51155C12.0775 8.65298 12.0382 8.76869 11.99 8.76869C11.9419 8.76869 11.9025 8.84584 11.9025 8.94012C11.9025 9.03441 11.8631 9.11155 11.815 9.11155C11.7669 9.11155 11.7275 9.22727 11.7275 9.36869C11.7275 9.51012 11.6881 9.62584 11.64 9.62584C11.5918 9.62584 11.5524 9.74155 11.5524 9.88298C11.5524 10.0244 11.5131 10.1401 11.4649 10.1401C11.4168 10.1401 11.3774 10.2173 11.3774 10.3116C11.3774 10.4058 11.338 10.483 11.2899 10.483C11.2417 10.483 11.2024 10.5987 11.2024 10.7401C11.2024 10.8816 11.163 10.9973 11.1148 10.9973C11.0667 10.9973 11.0273 11.0744 11.0273 11.1687C11.0273 11.263 10.9879 11.3401 10.9398 11.3401C10.8917 11.3401 10.8523 11.4558 10.8523 11.5973C10.8523 11.7387 10.8129 11.8544 10.7648 11.8544C10.7166 11.8544 10.6773 11.893 10.6773 11.9401C10.6773 11.9921 11.0565 12.0258 11.64 12.0258C12.5443 12.0258 12.6027 12.0155 12.6027 11.8544C12.6027 11.7601 12.642 11.683 12.6902 11.683C12.7383 11.683 12.7777 11.5673 12.7777 11.4258C12.7777 11.2844 12.8171 11.1687 12.8652 11.1687C12.9133 11.1687 12.9527 11.053 12.9527 10.9116C12.9527 10.7701 12.9921 10.6544 13.0403 10.6544C13.0884 10.6544 13.1278 10.5773 13.1278 10.483C13.1278 10.3887 13.1672 10.3116 13.2153 10.3116C13.2634 10.3116 13.3028 10.1958 13.3028 10.0544V9.79727H15.0532H16.8035V10.0544C16.8035 10.1958 16.8429 10.3116 16.8911 10.3116C16.9392 10.3116 16.9786 10.3887 16.9786 10.483C16.9786 10.5773 17.018 10.6544 17.0661 10.6544C17.1142 10.6544 17.1536 10.7701 17.1536 10.9116C17.1536 11.053 17.193 11.1687 17.2411 11.1687C17.2893 11.1687 17.3287 11.2458 17.3287 11.3401C17.3287 11.4344 17.368 11.5116 17.4162 11.5116C17.4643 11.5116 17.5037 11.6273 17.5037 11.7687V12.0258H18.4664C19.3707 12.0258 19.4291 12.0155 19.4291 11.8544C19.4291 11.7601 19.3897 11.683 19.3416 11.683C19.2934 11.683 19.2541 11.5673 19.2541 11.4258C19.2541 11.2844 19.2147 11.1687 19.1665 11.1687C19.1184 11.1687 19.079 11.0916 19.079 10.9973C19.079 10.903 19.0396 10.8258 18.9915 10.8258C18.9434 10.8258 18.904 10.7101 18.904 10.5687C18.904 10.4273 18.8646 10.3116 18.8165 10.3116C18.7683 10.3116 18.729 10.2344 18.729 10.1401C18.729 10.0458 18.6896 9.96869 18.6414 9.96869C18.5933 9.96869 18.5539 9.85298 18.5539 9.71155C18.5539 9.57012 18.5145 9.45441 18.4664 9.45441C18.4183 9.45441 18.3789 9.37727 18.3789 9.28298C18.3789 9.18869 18.3395 9.11155 18.2914 9.11155C18.2432 9.11155 18.2038 8.99584 18.2038 8.85441C18.2038 8.71298 18.1645 8.59727 18.1163 8.59727C18.0682 8.59727 18.0288 8.52012 18.0288 8.42584C18.0288 8.33155 17.9894 8.25441 17.9413 8.25441C17.8931 8.25441 17.8538 8.13869 17.8538 7.99727C17.8538 7.85584 17.8144 7.74012 17.7662 7.74012C17.7181 7.74012 17.6787 7.66298 17.6787 7.56869C17.6787 7.47441 17.6393 7.39727 17.5912 7.39727C17.5431 7.39727 17.5037 7.28155 17.5037 7.14012C17.5037 6.99869 17.4643 6.88298 17.4162 6.88298C17.368 6.88298 17.3287 6.80584 17.3287 6.71155C17.3287 6.61727 17.2893 6.54012 17.2411 6.54012C17.193 6.54012 17.1536 6.42441 17.1536 6.28298C17.1536 6.14155 17.1142 6.02584 17.0661 6.02584C17.018 6.02584 16.9786 5.94869 16.9786 5.85441C16.9786 5.76012 16.9392 5.68298 16.8911 5.68298C16.8429 5.68298 16.8035 5.56727 16.8035 5.42584C16.8035 5.28441 16.7642 5.16869 16.716 5.16869C16.6679 5.16869 16.6285 5.09155 16.6285 4.99727C16.6285 4.90298 16.5891 4.82584 16.541 4.82584C16.4929 4.82584 16.4535 4.71012 16.4535 4.56869C16.4535 4.42727 16.4141 4.31155 16.366 4.31155C16.3178 4.31155 16.2784 4.23441 16.2784 4.14012C16.2784 4.04584 16.239 3.96869 16.1909 3.96869C16.1428 3.96869 16.1034 3.85298 16.1034 3.71155C16.1034 3.57012 16.064 3.45441 16.0159 3.45441C15.9677 3.45441 15.9284 3.37727 15.9284 3.28298C15.9284 3.18869 15.889 3.11155 15.8408 3.11155C15.7927 3.11155 15.7533 3.03441 15.7533 2.94012C15.7533 2.78318 15.6961 2.76895 15.0751 2.77195C14.6024 2.77427 14.3636 2.81206 14.2874 2.89692ZM29.7563 3.02584C29.7563 3.16727 29.7169 3.28298 29.6688 3.28298C29.6206 3.28298 29.5812 3.36012 29.5812 3.45441C29.5812 3.54869 29.5419 3.62584 29.4937 3.62584C29.4456 3.62584 29.4062 3.74155 29.4062 3.88298C29.4062 4.02441 29.3668 4.14012 29.3187 4.14012C29.2705 4.14012 29.2312 4.21727 29.2312 4.31155C29.2312 4.40584 29.1918 4.48298 29.1436 4.48298C29.0955 4.48298 29.0561 4.59869 29.0561 4.74012C29.0561 4.88155 29.0167 4.99727 28.9686 4.99727C28.9205 4.99727 28.8811 5.11298 28.8811 5.25441C28.8811 5.39584 28.8417 5.51155 28.7936 5.51155C28.7454 5.51155 28.7061 5.58869 28.7061 5.68298C28.7061 5.77727 28.6667 5.85441 28.6185 5.85441C28.5704 5.85441 28.531 5.97012 28.531 6.11155C28.531 6.25298 28.4916 6.36869 28.4435 6.36869C28.3954 6.36869 28.356 6.44584 28.356 6.54012C28.356 6.63441 28.3166 6.71155 28.2685 6.71155C28.2203 6.71155 28.1809 6.82727 28.1809 6.96869C28.1809 7.11012 28.1416 7.22584 28.0934 7.22584C28.0453 7.22584 28.0059 7.34155 28.0059 7.48298C28.0059 7.62441 27.9665 7.74012 27.9184 7.74012C27.8703 7.74012 27.8309 7.81727 27.8309 7.91155C27.8309 8.00584 27.7915 8.08298 27.7434 8.08298C27.6952 8.08298 27.6558 8.19869 27.6558 8.34012C27.6558 8.48155 27.6165 8.59727 27.5683 8.59727C27.5202 8.59727 27.4808 8.67441 27.4808 8.76869C27.4808 8.86298 27.4414 8.94012 27.3933 8.94012C27.3451 8.94012 27.3058 9.05584 27.3058 9.19727C27.3058 9.33869 27.2664 9.45441 27.2182 9.45441C27.1701 9.45441 27.1307 9.57012 27.1307 9.71155C27.1307 9.85298 27.0913 9.96869 27.0432 9.96869C26.9951 9.96869 26.9557 10.0458 26.9557 10.1401C26.9557 10.2344 26.9163 10.3116 26.8682 10.3116C26.82 10.3116 26.7806 10.4273 26.7806 10.5687C26.7806 10.7101 26.7413 10.8258 26.6931 10.8258C26.645 10.8258 26.6056 10.903 26.6056 10.9973C26.6056 11.0916 26.5662 11.1687 26.5181 11.1687C26.47 11.1687 26.4306 11.2844 26.4306 11.4258C26.4306 11.5673 26.3912 11.683 26.3431 11.683C26.2949 11.683 26.2555 11.7601 26.2555 11.8544C26.2555 12.0139 26.3139 12.0258 27.0932 12.0258C28.009 12.0258 28.1809 11.9523 28.1809 11.5605C28.1809 11.4393 28.2203 11.3401 28.2685 11.3401C28.3166 11.3401 28.356 11.263 28.356 11.1687C28.356 11.0744 28.3954 10.9973 28.4435 10.9973C28.4916 10.9973 28.531 10.8816 28.531 10.7401C28.531 10.5987 28.5704 10.483 28.6185 10.483C28.6667 10.483 28.7061 10.3838 28.7061 10.2626C28.7061 9.82684 28.8229 9.79727 30.5439 9.79727C32.265 9.79727 32.3818 9.82684 32.3818 10.2626C32.3818 10.3838 32.4212 10.483 32.4693 10.483C32.5175 10.483 32.5569 10.5601 32.5569 10.6544C32.5569 10.7487 32.5963 10.8258 32.6444 10.8258C32.6925 10.8258 32.7319 10.9416 32.7319 11.083C32.7319 11.2244 32.7713 11.3401 32.8194 11.3401C32.8676 11.3401 32.9069 11.4393 32.9069 11.5605C32.9069 11.96 33.0731 12.0258 34.0822 12.0258C34.6407 12.0258 35.0074 11.9919 35.0074 11.9401C35.0074 11.893 34.968 11.8544 34.9199 11.8544C34.8717 11.8544 34.8323 11.7387 34.8323 11.5973C34.8323 11.4558 34.793 11.3401 34.7448 11.3401C34.6967 11.3401 34.6573 11.263 34.6573 11.1687C34.6573 11.0744 34.6179 10.9973 34.5698 10.9973C34.5217 10.9973 34.4823 10.8816 34.4823 10.7401C34.4823 10.5987 34.4429 10.483 34.3948 10.483C34.3466 10.483 34.3072 10.4058 34.3072 10.3116C34.3072 10.2173 34.2679 10.1401 34.2197 10.1401C34.1716 10.1401 34.1322 10.0244 34.1322 9.88298C34.1322 9.74155 34.0928 9.62584 34.0447 9.62584C33.9965 9.62584 33.9572 9.54869 33.9572 9.45441C33.9572 9.36012 33.9178 9.28298 33.8696 9.28298C33.8215 9.28298 33.7821 9.16727 33.7821 9.02584C33.7821 8.88441 33.7427 8.76869 33.6946 8.76869C33.6465 8.76869 33.6071 8.69155 33.6071 8.59727C33.6071 8.50298 33.5677 8.42584 33.5196 8.42584C33.4714 8.42584 33.4321 8.31012 33.4321 8.16869C33.4321 8.02727 33.3927 7.91155 33.3445 7.91155C33.2964 7.91155 33.257 7.83441 33.257 7.74012C33.257 7.64584 33.2176 7.56869 33.1695 7.56869C33.1214 7.56869 33.082 7.45298 33.082 7.31155C33.082 7.17012 33.0426 7.05441 32.9945 7.05441C32.9463 7.05441 32.9069 6.97727 32.9069 6.88298C32.9069 6.78869 32.8676 6.71155 32.8194 6.71155C32.7713 6.71155 32.7319 6.59584 32.7319 6.45441C32.7319 6.31298 32.6925 6.19727 32.6444 6.19727C32.5963 6.19727 32.5569 6.12012 32.5569 6.02584C32.5569 5.93155 32.5175 5.85441 32.4693 5.85441C32.4212 5.85441 32.3818 5.73869 32.3818 5.59727C32.3818 5.45584 32.3424 5.34012 32.2943 5.34012C32.2462 5.34012 32.2068 5.26298 32.2068 5.16869C32.2068 5.07441 32.1674 4.99727 32.1193 4.99727C32.0711 4.99727 32.0318 4.88155 32.0318 4.74012C32.0318 4.59869 31.9924 4.48298 31.9442 4.48298C31.8961 4.48298 31.8567 4.40584 31.8567 4.31155C31.8567 4.21727 31.8173 4.14012 31.7692 4.14012C31.7211 4.14012 31.6817 4.06298 31.6817 3.96869C31.6817 3.87441 31.6423 3.79727 31.5942 3.79727C31.546 3.79727 31.5066 3.68155 31.5066 3.54012C31.5066 3.39869 31.4673 3.28298 31.4191 3.28298C31.371 3.28298 31.3316 3.22238 31.3316 3.14832C31.3316 2.86487 31.1003 2.76869 30.4189 2.76869H29.7563V3.02584ZM37.4579 2.85441C37.4579 2.90155 37.3004 2.94012 37.1078 2.94012C36.9153 2.94012 36.7578 2.97869 36.7578 3.02584C36.7578 3.07298 36.6396 3.11155 36.4952 3.11155C36.3508 3.11155 36.2326 3.15012 36.2326 3.19727C36.2326 3.24441 36.1708 3.28298 36.0951 3.28298C36.0194 3.28298 35.9013 3.3381 35.8326 3.40547C35.6891 3.54587 35.6651 3.79727 35.7951 3.79727C35.8432 3.79727 35.8826 3.91298 35.8826 4.05441C35.8826 4.19584 35.922 4.31155 35.9701 4.31155C36.0182 4.31155 36.0576 4.42727 36.0576 4.56869C36.0576 4.71012 36.097 4.82584 36.1451 4.82584C36.1933 4.82584 36.2326 4.78727 36.2326 4.74012C36.2326 4.69298 36.3114 4.65441 36.4077 4.65441C36.5039 4.65441 36.5827 4.61584 36.5827 4.56869C36.5827 4.52155 36.7009 4.48298 36.8453 4.48298C36.9897 4.48298 37.1078 4.44441 37.1078 4.39727C37.1078 4.35012 37.3047 4.31155 37.5454 4.31155C37.7861 4.31155 37.983 4.27298 37.983 4.22584C37.983 4.17869 38.1405 4.14012 38.3331 4.14012C38.5256 4.14012 38.6832 4.17869 38.6832 4.22584C38.6832 4.27298 38.8013 4.31155 38.9457 4.31155C39.0901 4.31155 39.2083 4.35012 39.2083 4.39727C39.2083 4.44441 39.2701 4.48298 39.3458 4.48298C39.5226 4.48298 39.7334 4.68938 39.7334 4.86261C39.7334 4.93667 39.7728 4.99727 39.8209 4.99727C39.869 4.99727 39.9084 5.19012 39.9084 5.42584C39.9084 5.66155 39.869 5.85441 39.8209 5.85441C39.7728 5.85441 39.7334 5.91501 39.7334 5.98906C39.7334 6.16229 39.5226 6.36869 39.3458 6.36869C39.2701 6.36869 39.2083 6.40727 39.2083 6.45441C39.2083 6.50155 39.0901 6.54012 38.9457 6.54012C38.8013 6.54012 38.6832 6.57869 38.6832 6.62584C38.6832 6.67727 38.3331 6.71155 37.808 6.71155H36.9328V7.39727V8.08298H37.983C38.6248 8.08298 39.0332 8.11632 39.0332 8.16869C39.0332 8.21584 39.133 8.25441 39.2549 8.25441C39.3913 8.25441 39.5935 8.36892 39.78 8.55158C40.0596 8.82526 40.0835 8.88964 40.0835 9.36869C40.0835 9.84775 40.0596 9.91212 39.78 10.1858C39.6132 10.3493 39.4163 10.483 39.3424 10.483C39.2687 10.483 39.2083 10.5216 39.2083 10.5687C39.2083 10.6158 39.0901 10.6544 38.9457 10.6544C38.8013 10.6544 38.6832 10.693 38.6832 10.7401C38.6832 10.7878 38.4497 10.8258 38.1581 10.8258C37.8663 10.8258 37.6329 10.7878 37.6329 10.7401C37.6329 10.693 37.436 10.6544 37.1953 10.6544C36.9547 10.6544 36.7578 10.6158 36.7578 10.5687C36.7578 10.5216 36.6396 10.483 36.4952 10.483C36.3508 10.483 36.2326 10.4444 36.2326 10.3973C36.2326 10.3501 36.1539 10.3116 36.0576 10.3116C35.8955 10.3116 35.8826 10.3687 35.8826 11.083V11.8544H36.1451C36.2895 11.8544 36.4077 11.893 36.4077 11.9401C36.4077 11.9873 36.6046 12.0258 36.8453 12.0258C37.0859 12.0258 37.2829 12.0644 37.2829 12.1116C37.2829 12.1639 37.6913 12.1973 38.3331 12.1973C38.9749 12.1973 39.3833 12.1639 39.3833 12.1116C39.3833 12.0644 39.5408 12.0258 39.7334 12.0258C39.9259 12.0258 40.0835 11.9873 40.0835 11.9401C40.0835 11.893 40.1622 11.8544 40.2585 11.8544C40.3548 11.8544 40.4335 11.8158 40.4335 11.7687C40.4335 11.7216 40.4935 11.683 40.5667 11.683C40.74 11.683 41.6588 10.7831 41.6588 10.6134C41.6588 10.5417 41.6982 10.483 41.7463 10.483C41.7944 10.483 41.8338 10.2901 41.8338 10.0544C41.8338 9.81869 41.8732 9.62584 41.9213 9.62584C41.9695 9.62584 42.0089 9.51012 42.0089 9.36869C42.0089 9.22727 41.9695 9.11155 41.9213 9.11155C41.8732 9.11155 41.8338 8.95727 41.8338 8.76869C41.8338 8.58012 41.7944 8.42584 41.7463 8.42584C41.6982 8.42584 41.6588 8.36627 41.6588 8.29341C41.6588 8.13141 41.2729 7.74012 41.1132 7.74012C41.0495 7.74012 40.9405 7.66298 40.8711 7.56869C40.797 7.46807 40.6445 7.39727 40.5017 7.39727C40.368 7.39727 40.2585 7.35869 40.2585 7.31155C40.2585 7.26441 40.3373 7.22584 40.4335 7.22584C40.5298 7.22584 40.6086 7.18727 40.6086 7.14012C40.6086 7.09298 40.6694 7.05441 40.7438 7.05441C40.9092 7.05441 41.3087 6.67649 41.3087 6.52006C41.3087 6.45766 41.3875 6.35095 41.4837 6.28298C41.6401 6.17258 41.6588 6.06107 41.6588 5.23547C41.6588 4.67669 41.6242 4.31155 41.5713 4.31155C41.5231 4.31155 41.4837 4.25267 41.4837 4.18075C41.4837 4.01061 40.7408 3.28298 40.5671 3.28298C40.4936 3.28298 40.4335 3.24441 40.4335 3.19727C40.4335 3.15012 40.3548 3.11155 40.2585 3.11155C40.1622 3.11155 40.0835 3.07298 40.0835 3.02584C40.0835 2.97869 39.9259 2.94012 39.7334 2.94012C39.5408 2.94012 39.3833 2.90155 39.3833 2.85441C39.3833 2.80247 39.0041 2.76869 38.4206 2.76869C37.8371 2.76869 37.4579 2.80247 37.4579 2.85441ZM82.7925 2.85441C82.7925 2.90155 82.5956 2.94012 82.3549 2.94012C82.1142 2.94012 81.9173 2.97869 81.9173 3.02584C81.9173 3.07298 81.8385 3.11155 81.7422 3.11155C81.646 3.11155 81.5672 3.15012 81.5672 3.19727C81.5672 3.24441 81.4884 3.28298 81.3922 3.28298C81.2959 3.28298 81.2171 3.32155 81.2171 3.36869C81.2171 3.41584 81.1542 3.45441 81.0772 3.45441C81.0003 3.45441 80.8269 3.57012 80.692 3.71155C80.5572 3.85298 80.3838 3.96869 80.3069 3.96869C80.2298 3.96869 80.1669 4.03032 80.1669 4.10575C80.1669 4.18109 80.0488 4.35089 79.9044 4.48298C79.7599 4.61507 79.6418 4.78487 79.6418 4.86021C79.6418 4.93564 79.6024 4.99727 79.5543 4.99727C79.5061 4.99727 79.4668 5.07441 79.4668 5.16869C79.4668 5.26298 79.4274 5.34012 79.3792 5.34012C79.3311 5.34012 79.2917 5.41727 79.2917 5.51155C79.2917 5.60584 79.2523 5.68298 79.2042 5.68298C79.1561 5.68298 79.1167 5.83727 79.1167 6.02584C79.1167 6.21441 79.0773 6.36869 79.0292 6.36869C78.9753 6.36869 78.9417 6.79727 78.9417 7.48298C78.9417 8.16869 78.9753 8.59727 79.0292 8.59727C79.0773 8.59727 79.1167 8.75155 79.1167 8.94012C79.1167 9.12869 79.1561 9.28298 79.2042 9.28298C79.2523 9.28298 79.2917 9.36012 79.2917 9.45441C79.2917 9.54869 79.3311 9.62584 79.3792 9.62584C79.4274 9.62584 79.4668 9.70298 79.4668 9.79727C79.4668 9.89155 79.5061 9.96869 79.5543 9.96869C79.6024 9.96869 79.6418 10.0374 79.6418 10.1212C79.6418 10.2051 79.7206 10.3293 79.8168 10.3973C79.9131 10.4652 79.9919 10.572 79.9919 10.6344C79.9919 10.7815 80.3872 11.1687 80.5375 11.1687C80.6012 11.1687 80.7101 11.2458 80.7795 11.3401C80.8489 11.4344 80.9758 11.5116 81.0614 11.5116C81.147 11.5116 81.2171 11.5501 81.2171 11.5973C81.2171 11.6444 81.2959 11.683 81.3922 11.683C81.4884 11.683 81.5672 11.7216 81.5672 11.7687C81.5672 11.8158 81.646 11.8544 81.7422 11.8544C81.8385 11.8544 81.9173 11.893 81.9173 11.9401C81.9173 11.9873 82.0748 12.0258 82.2674 12.0258C82.4599 12.0258 82.6174 12.0644 82.6174 12.1116C82.6174 12.1635 82.9966 12.1973 83.5801 12.1973C84.1636 12.1973 84.5428 12.1635 84.5428 12.1116C84.5428 12.0644 84.7004 12.0258 84.8929 12.0258C85.0854 12.0258 85.243 11.9873 85.243 11.9401C85.243 11.893 85.3611 11.8544 85.5055 11.8544C85.6499 11.8544 85.7681 11.8158 85.7681 11.7687C85.7681 11.7216 85.8469 11.683 85.9431 11.683C86.0394 11.683 86.1182 11.6444 86.1182 11.5973C86.1182 11.5501 86.1779 11.5116 86.2511 11.5116C86.4128 11.5116 87.5185 10.4452 87.5185 10.2892C87.5185 10.2281 87.5972 10.1224 87.6935 10.0544C87.7898 9.98644 87.8685 9.86224 87.8685 9.77832C87.8685 9.69449 87.9079 9.62584 87.9561 9.62584C88.0042 9.62584 88.0436 9.51012 88.0436 9.36869C88.0436 9.22727 88.083 9.11155 88.1311 9.11155C88.1792 9.11155 88.2186 8.91869 88.2186 8.68298C88.2186 8.44727 88.258 8.25441 88.3061 8.25441C88.358 8.25441 88.3936 7.94009 88.3936 7.48298C88.3936 7.02587 88.358 6.71155 88.3061 6.71155C88.258 6.71155 88.2186 6.51869 88.2186 6.28298C88.2186 6.04727 88.1792 5.85441 88.1311 5.85441C88.083 5.85441 88.0436 5.73869 88.0436 5.59727C88.0436 5.45584 88.0042 5.34012 87.9561 5.34012C87.9079 5.34012 87.8685 5.27147 87.8685 5.18764C87.8685 5.10372 87.7898 4.97952 87.6935 4.91155C87.5972 4.84358 87.5185 4.73781 87.5185 4.67652C87.5185 4.53124 86.594 3.62584 86.4457 3.62584C86.3831 3.62584 86.2751 3.54869 86.2057 3.45441C86.1363 3.36012 86.0095 3.28298 85.9238 3.28298C85.8382 3.28298 85.7681 3.24441 85.7681 3.19727C85.7681 3.15012 85.6499 3.11155 85.5055 3.11155C85.3611 3.11155 85.243 3.07298 85.243 3.02584C85.243 2.97869 85.0854 2.94012 84.8929 2.94012C84.7004 2.94012 84.5428 2.90155 84.5428 2.85441C84.5428 2.80298 84.1928 2.76869 83.6676 2.76869C83.1425 2.76869 82.7925 2.80298 82.7925 2.85441ZM171.886 2.85441C171.886 2.90155 171.729 2.94012 171.536 2.94012C171.344 2.94012 171.186 2.97869 171.186 3.02584C171.186 3.07298 171.068 3.11155 170.924 3.11155C170.779 3.11155 170.661 3.15012 170.661 3.19727C170.661 3.24441 170.591 3.28298 170.505 3.28298C170.42 3.28298 170.293 3.36012 170.223 3.45441C170.154 3.54869 170.046 3.62584 169.984 3.62584C169.824 3.62584 168.736 4.70875 168.736 4.86707C168.736 4.93872 168.696 4.99727 168.648 4.99727C168.6 4.99727 168.561 5.07441 168.561 5.16869C168.561 5.26298 168.521 5.34012 168.473 5.34012C168.425 5.34012 168.386 5.41727 168.386 5.51155C168.386 5.60584 168.346 5.68298 168.298 5.68298C168.25 5.68298 168.21 5.79869 168.21 5.94012C168.21 6.08155 168.171 6.19727 168.123 6.19727C168.073 6.19727 168.035 6.45441 168.035 6.79727C168.035 7.14012 167.998 7.39727 167.948 7.39727C167.9 7.39727 167.86 7.47441 167.86 7.56869C167.86 7.66298 167.9 7.74012 167.948 7.74012C167.999 7.74012 168.035 8.02581 168.035 8.42584C168.035 8.82587 168.072 9.11155 168.123 9.11155C168.171 9.11155 168.21 9.22727 168.21 9.36869C168.21 9.51012 168.25 9.62584 168.298 9.62584C168.346 9.62584 168.386 9.70298 168.386 9.79727C168.386 9.89155 168.425 9.96869 168.473 9.96869C168.521 9.96869 168.561 10.0303 168.561 10.1058C168.561 10.1811 168.679 10.3509 168.823 10.483C168.968 10.6151 169.086 10.7683 169.086 10.8235C169.086 10.9597 169.309 11.1687 169.454 11.1687C169.519 11.1687 169.629 11.2458 169.698 11.3401C169.768 11.4344 169.895 11.5116 169.98 11.5116C170.066 11.5116 170.136 11.5501 170.136 11.5973C170.136 11.6444 170.215 11.683 170.311 11.683C170.407 11.683 170.486 11.7216 170.486 11.7687C170.486 11.8158 170.565 11.8544 170.661 11.8544C170.757 11.8544 170.836 11.893 170.836 11.9401C170.836 11.9873 171.033 12.0258 171.274 12.0258C171.514 12.0258 171.711 12.0644 171.711 12.1116C171.711 12.1635 172.09 12.1973 172.674 12.1973C173.257 12.1973 173.637 12.1635 173.637 12.1116C173.637 12.0644 173.834 12.0258 174.074 12.0258C174.315 12.0258 174.512 11.9873 174.512 11.9401C174.512 11.893 174.63 11.8544 174.774 11.8544C174.919 11.8544 175.037 11.8158 175.037 11.7687C175.037 11.7216 175.099 11.683 175.174 11.683C175.25 11.683 175.368 11.6279 175.437 11.5605C175.578 11.4221 175.609 10.8258 175.475 10.8258C175.426 10.8258 175.387 10.7487 175.387 10.6544C175.387 10.5601 175.348 10.483 175.299 10.483C175.251 10.483 175.212 10.4058 175.212 10.3116C175.212 10.2173 175.173 10.1401 175.124 10.1401C175.076 10.1401 175.037 10.1787 175.037 10.2258C175.037 10.273 174.919 10.3116 174.774 10.3116C174.63 10.3116 174.512 10.3501 174.512 10.3973C174.512 10.4444 174.433 10.483 174.337 10.483C174.241 10.483 174.162 10.5216 174.162 10.5687C174.162 10.6158 173.965 10.6544 173.724 10.6544C173.483 10.6544 173.287 10.693 173.287 10.7401C173.287 10.7873 173.09 10.8258 172.849 10.8258C172.608 10.8258 172.411 10.7873 172.411 10.7401C172.411 10.693 172.254 10.6544 172.061 10.6544C171.869 10.6544 171.711 10.6158 171.711 10.5687C171.711 10.5216 171.632 10.483 171.536 10.483C171.44 10.483 171.361 10.4444 171.361 10.3973C171.361 10.3501 171.301 10.3116 171.228 10.3116C171.054 10.3116 170.311 9.58392 170.311 9.41378C170.311 9.34187 170.272 9.28298 170.223 9.28298C170.175 9.28298 170.136 9.20584 170.136 9.11155C170.136 9.01727 170.097 8.94012 170.048 8.94012C170 8.94012 169.961 8.82441 169.961 8.68298C169.961 8.54155 169.921 8.42584 169.873 8.42584C169.821 8.42584 169.786 8.08298 169.786 7.56869C169.786 7.05441 169.821 6.71155 169.873 6.71155C169.921 6.71155 169.961 6.55727 169.961 6.36869C169.961 6.18012 170 6.02584 170.048 6.02584C170.097 6.02584 170.136 5.95718 170.136 5.87335C170.136 5.78944 170.215 5.66524 170.311 5.59727C170.407 5.52929 170.486 5.42258 170.486 5.36018C170.486 5.21301 170.881 4.82584 171.032 4.82584C171.095 4.82584 171.204 4.74869 171.274 4.65441C171.348 4.55378 171.5 4.48298 171.643 4.48298C171.777 4.48298 171.886 4.44441 171.886 4.39727C171.886 4.35012 172.044 4.31155 172.236 4.31155C172.429 4.31155 172.586 4.27298 172.586 4.22584C172.586 4.17869 172.783 4.14012 173.024 4.14012C173.265 4.14012 173.462 4.17869 173.462 4.22584C173.462 4.27298 173.659 4.31155 173.899 4.31155C174.14 4.31155 174.337 4.35012 174.337 4.39727C174.337 4.44441 174.455 4.48298 174.599 4.48298C174.744 4.48298 174.862 4.52155 174.862 4.56869C174.862 4.61584 174.941 4.65441 175.037 4.65441C175.133 4.65441 175.212 4.69298 175.212 4.74012C175.212 4.78727 175.251 4.82584 175.299 4.82584C175.352 4.82584 175.387 4.48298 175.387 3.96869V3.11155H175.124C174.98 3.11155 174.862 3.07298 174.862 3.02584C174.862 2.97869 174.665 2.94012 174.424 2.94012C174.184 2.94012 173.987 2.90155 173.987 2.85441C173.987 2.80204 173.578 2.76869 172.936 2.76869C172.295 2.76869 171.886 2.80204 171.886 2.85441ZM196.041 2.85441C196.041 2.90155 195.844 2.94012 195.604 2.94012C195.363 2.94012 195.166 2.97869 195.166 3.02584C195.166 3.07298 195.087 3.11155 194.991 3.11155C194.895 3.11155 194.816 3.15012 194.816 3.19727C194.816 3.24441 194.737 3.28298 194.641 3.28298C194.545 3.28298 194.466 3.32155 194.466 3.36869C194.466 3.41584 194.406 3.45441 194.333 3.45441C194.16 3.45441 192.891 4.69795 192.891 4.86732C192.891 4.93881 192.851 4.99727 192.803 4.99727C192.755 4.99727 192.716 5.07441 192.716 5.16869C192.716 5.26298 192.676 5.34012 192.628 5.34012C192.58 5.34012 192.541 5.41727 192.541 5.51155C192.541 5.60584 192.501 5.68298 192.453 5.68298C192.405 5.68298 192.366 5.83727 192.366 6.02584C192.366 6.21441 192.326 6.36869 192.278 6.36869C192.224 6.36869 192.191 6.79727 192.191 7.48298C192.191 8.16869 192.224 8.59727 192.278 8.59727C192.326 8.59727 192.366 8.75155 192.366 8.94012C192.366 9.12869 192.405 9.28298 192.453 9.28298C192.501 9.28298 192.541 9.36012 192.541 9.45441C192.541 9.54869 192.58 9.62584 192.628 9.62584C192.676 9.62584 192.716 9.70298 192.716 9.79727C192.716 9.89155 192.755 9.96869 192.803 9.96869C192.851 9.96869 192.891 10.0374 192.891 10.1212C192.891 10.2051 192.969 10.3293 193.066 10.3973C193.162 10.4652 193.241 10.572 193.241 10.6344C193.241 10.7815 193.636 11.1687 193.786 11.1687C193.85 11.1687 193.959 11.2458 194.028 11.3401C194.098 11.4344 194.225 11.5116 194.31 11.5116C194.396 11.5116 194.466 11.5501 194.466 11.5973C194.466 11.6444 194.545 11.683 194.641 11.683C194.737 11.683 194.816 11.7216 194.816 11.7687C194.816 11.8158 194.895 11.8544 194.991 11.8544C195.087 11.8544 195.166 11.893 195.166 11.9401C195.166 11.9873 195.324 12.0258 195.516 12.0258C195.709 12.0258 195.866 12.0644 195.866 12.1116C195.866 12.1635 196.246 12.1973 196.829 12.1973C197.413 12.1973 197.792 12.1635 197.792 12.1116C197.792 12.0644 197.949 12.0258 198.142 12.0258C198.334 12.0258 198.492 11.9873 198.492 11.9401C198.492 11.893 198.61 11.8544 198.754 11.8544C198.899 11.8544 199.017 11.8158 199.017 11.7687C199.017 11.7216 199.096 11.683 199.192 11.683C199.288 11.683 199.367 11.6444 199.367 11.5973C199.367 11.5501 199.427 11.5116 199.5 11.5116C199.662 11.5116 200.767 10.4452 200.767 10.2892C200.767 10.2281 200.846 10.1224 200.942 10.0544C201.039 9.98644 201.117 9.86224 201.117 9.77832C201.117 9.69449 201.157 9.62584 201.205 9.62584C201.253 9.62584 201.292 9.51012 201.292 9.36869C201.292 9.22727 201.332 9.11155 201.38 9.11155C201.428 9.11155 201.467 8.95727 201.467 8.76869C201.467 8.58012 201.507 8.42584 201.555 8.42584C201.608 8.42584 201.643 8.05444 201.643 7.48298C201.643 6.91152 201.608 6.54012 201.555 6.54012C201.507 6.54012 201.467 6.38584 201.467 6.19727C201.467 6.00869 201.428 5.85441 201.38 5.85441C201.332 5.85441 201.292 5.73869 201.292 5.59727C201.292 5.45584 201.253 5.34012 201.205 5.34012C201.157 5.34012 201.117 5.27147 201.117 5.18764C201.117 5.10372 201.039 4.97952 200.942 4.91155C200.846 4.84358 200.767 4.73789 200.767 4.67678C200.767 4.52078 199.662 3.45441 199.5 3.45441C199.427 3.45441 199.367 3.41584 199.367 3.36869C199.367 3.32155 199.288 3.28298 199.192 3.28298C199.096 3.28298 199.017 3.24441 199.017 3.19727C199.017 3.15012 198.899 3.11155 198.754 3.11155C198.61 3.11155 198.492 3.07298 198.492 3.02584C198.492 2.97869 198.334 2.94012 198.142 2.94012C197.949 2.94012 197.792 2.90155 197.792 2.85441C197.792 2.80298 197.442 2.76869 196.917 2.76869C196.391 2.76869 196.041 2.80298 196.041 2.85441ZM217.746 2.85441C217.746 2.90155 217.588 2.94012 217.396 2.94012C217.203 2.94012 217.046 2.97869 217.046 3.02584C217.046 3.07298 216.928 3.11155 216.783 3.11155C216.639 3.11155 216.521 3.15012 216.521 3.19727C216.521 3.24441 216.442 3.28298 216.346 3.28298C216.249 3.28298 216.171 3.32155 216.171 3.36869C216.171 3.41584 216.111 3.45441 216.038 3.45441C215.877 3.45441 214.595 4.69247 214.595 4.84838C214.595 4.90949 214.516 5.01501 214.42 5.08298C214.324 5.15095 214.245 5.27515 214.245 5.35907C214.245 5.44289 214.206 5.51155 214.158 5.51155C214.11 5.51155 214.07 5.62727 214.07 5.76869C214.07 5.91012 214.031 6.02584 213.983 6.02584C213.934 6.02584 213.895 6.25444 213.895 6.54012C213.895 6.82581 213.856 7.05441 213.808 7.05441C213.759 7.05441 213.72 7.28301 213.72 7.56869C213.72 7.85438 213.759 8.08298 213.808 8.08298C213.856 8.08298 213.895 8.31158 213.895 8.59727C213.895 8.88295 213.934 9.11155 213.983 9.11155C214.031 9.11155 214.07 9.22727 214.07 9.36869C214.07 9.51012 214.11 9.62584 214.158 9.62584C214.206 9.62584 214.245 9.70298 214.245 9.79727C214.245 9.89155 214.285 9.96869 214.333 9.96869C214.381 9.96869 214.42 10.0374 214.42 10.1212C214.42 10.2051 214.499 10.3293 214.595 10.3973C214.692 10.4652 214.77 10.572 214.77 10.6344C214.77 10.7815 215.166 11.1687 215.316 11.1687C215.38 11.1687 215.489 11.2458 215.558 11.3401C215.627 11.4344 215.754 11.5116 215.84 11.5116C215.925 11.5116 215.996 11.5501 215.996 11.5973C215.996 11.6444 216.074 11.683 216.171 11.683C216.267 11.683 216.346 11.7216 216.346 11.7687C216.346 11.8158 216.424 11.8544 216.521 11.8544C216.617 11.8544 216.696 11.893 216.696 11.9401C216.696 11.9873 216.893 12.0258 217.133 12.0258C217.374 12.0258 217.571 12.0644 217.571 12.1116C217.571 12.1635 217.95 12.1973 218.534 12.1973C219.117 12.1973 219.496 12.1635 219.496 12.1116C219.496 12.0644 219.693 12.0258 219.934 12.0258C220.175 12.0258 220.371 11.9873 220.371 11.9401C220.371 11.893 220.49 11.8544 220.634 11.8544C220.778 11.8544 220.897 11.8158 220.897 11.7687C220.897 11.7216 220.958 11.683 221.034 11.683C221.11 11.683 221.228 11.6279 221.297 11.5605C221.439 11.4214 221.467 10.9973 221.334 10.9973C221.286 10.9973 221.247 10.8816 221.247 10.7401C221.247 10.5987 221.207 10.483 221.159 10.483C221.111 10.483 221.072 10.4058 221.072 10.3116C221.072 10.1973 221.013 10.1401 220.897 10.1401C220.8 10.1401 220.722 10.1787 220.722 10.2258C220.722 10.273 220.643 10.3116 220.547 10.3116C220.45 10.3116 220.371 10.3501 220.371 10.3973C220.371 10.4444 220.293 10.483 220.196 10.483C220.1 10.483 220.021 10.5216 220.021 10.5687C220.021 10.6158 219.824 10.6544 219.584 10.6544C219.343 10.6544 219.146 10.693 219.146 10.7401C219.146 10.7873 218.949 10.8258 218.709 10.8258C218.468 10.8258 218.271 10.7873 218.271 10.7401C218.271 10.693 218.114 10.6544 217.921 10.6544C217.728 10.6544 217.571 10.6158 217.571 10.5687C217.571 10.5216 217.492 10.483 217.396 10.483C217.3 10.483 217.221 10.4444 217.221 10.3973C217.221 10.3501 217.161 10.3116 217.087 10.3116C216.914 10.3116 216.171 9.58392 216.171 9.41378C216.171 9.34187 216.131 9.28298 216.083 9.28298C216.035 9.28298 215.996 9.20584 215.996 9.11155C215.996 9.01727 215.956 8.94012 215.908 8.94012C215.86 8.94012 215.821 8.82441 215.821 8.68298C215.821 8.54155 215.781 8.42584 215.733 8.42584C215.68 8.42584 215.645 8.05444 215.645 7.48298C215.645 6.91152 215.68 6.54012 215.733 6.54012C215.781 6.54012 215.821 6.42441 215.821 6.28298C215.821 6.14155 215.86 6.02584 215.908 6.02584C215.956 6.02584 215.996 5.94869 215.996 5.85441C215.996 5.76012 216.035 5.68298 216.083 5.68298C216.131 5.68298 216.171 5.62409 216.171 5.55218C216.171 5.38204 216.914 4.65441 217.087 4.65441C217.161 4.65441 217.221 4.61584 217.221 4.56869C217.221 4.52155 217.3 4.48298 217.396 4.48298C217.492 4.48298 217.571 4.44441 217.571 4.39727C217.571 4.35012 217.768 4.31155 218.008 4.31155C218.249 4.31155 218.446 4.27298 218.446 4.22584C218.446 4.17869 218.643 4.14012 218.884 4.14012C219.124 4.14012 219.321 4.17869 219.321 4.22584C219.321 4.27298 219.518 4.31155 219.759 4.31155C220 4.31155 220.196 4.35012 220.196 4.39727C220.196 4.44441 220.275 4.48298 220.371 4.48298C220.468 4.48298 220.547 4.52155 220.547 4.56869C220.547 4.61584 220.665 4.65441 220.809 4.65441C220.953 4.65441 221.072 4.69298 221.072 4.74012C221.072 4.78727 221.111 4.82584 221.159 4.82584C221.211 4.82584 221.247 4.52378 221.247 4.09118C221.247 3.33518 221.158 3.11155 220.859 3.11155C220.783 3.11155 220.722 3.07298 220.722 3.02584C220.722 2.97869 220.525 2.94012 220.284 2.94012C220.043 2.94012 219.846 2.90155 219.846 2.85441C219.846 2.80204 219.438 2.76869 218.796 2.76869C218.154 2.76869 217.746 2.80204 217.746 2.85441ZM0 7.48298V12.0258H0.875185H1.75037V8.94012C1.75037 7.24298 1.77287 5.85441 1.80035 5.85441C1.89609 5.85441 2.10044 6.10007 2.10044 6.2151C2.10044 6.27878 2.17921 6.38644 2.27548 6.45441C2.37175 6.52238 2.45052 6.63809 2.45052 6.71155C2.45052 6.78501 2.52928 6.90072 2.62555 6.96869C2.72182 7.03667 2.80059 7.14544 2.80059 7.21041C2.80059 7.2753 2.91874 7.43661 3.06315 7.56869C3.20755 7.70078 3.3257 7.86209 3.3257 7.92698C3.3257 7.99195 3.40447 8.10072 3.50074 8.16869C3.59701 8.23667 3.67578 8.35238 3.67578 8.42584C3.67578 8.49929 3.75454 8.61501 3.85081 8.68298C3.94708 8.75095 4.02585 8.85767 4.02585 8.92006C4.02585 8.98255 4.12256 9.12826 4.24071 9.24398C4.41706 9.41678 4.54221 9.45441 4.94086 9.45441C5.34773 9.45441 5.42614 9.42981 5.42614 9.30192C5.42614 9.21801 5.50491 9.09381 5.60118 9.02584C5.69745 8.95787 5.77622 8.83366 5.77622 8.74975C5.77622 8.66592 5.8156 8.59727 5.86374 8.59727C5.91187 8.59727 5.95126 8.52861 5.95126 8.44478C5.95126 8.36087 6.03002 8.23667 6.12629 8.16869C6.22256 8.10072 6.30133 7.98501 6.30133 7.91155C6.30133 7.83809 6.3801 7.72238 6.47637 7.65441C6.57264 7.58644 6.6514 7.47072 6.6514 7.39727C6.6514 7.32381 6.73017 7.20809 6.82644 7.14012C6.92271 7.07215 7.00148 6.95644 7.00148 6.88298C7.00148 6.80952 7.08024 6.69381 7.17651 6.62584C7.27278 6.55787 7.35155 6.43367 7.35155 6.34975C7.35155 6.26592 7.39093 6.19727 7.43907 6.19727C7.4872 6.19727 7.52659 6.12012 7.52659 6.02584C7.52659 5.93155 7.56597 5.85441 7.61411 5.85441C7.67082 5.85441 7.70162 6.94015 7.70162 8.94012V12.0258H8.57681H9.45199V7.48298V2.94012H8.57681C7.79614 2.94012 7.70162 2.95658 7.70162 3.09261C7.70162 3.17652 7.62286 3.30072 7.52659 3.36869C7.43032 3.43667 7.35155 3.55238 7.35155 3.62584C7.35155 3.69929 7.27278 3.81501 7.17651 3.88298C7.08024 3.95095 7.00148 4.07515 7.00148 4.15907C7.00148 4.2429 6.96209 4.31155 6.91396 4.31155C6.86582 4.31155 6.82644 4.38021 6.82644 4.46404C6.82644 4.54795 6.74767 4.67215 6.6514 4.74012C6.55513 4.80809 6.47637 4.92381 6.47637 4.99727C6.47637 5.07072 6.3976 5.18644 6.30133 5.25441C6.20506 5.32238 6.12629 5.43809 6.12629 5.51155C6.12629 5.58501 6.04753 5.70072 5.95126 5.76869C5.85499 5.83667 5.77622 5.95238 5.77622 6.02584C5.77622 6.09929 5.69745 6.21501 5.60118 6.28298C5.50491 6.35095 5.42614 6.47515 5.42614 6.55907C5.42614 6.6429 5.38676 6.71155 5.33863 6.71155C5.29049 6.71155 5.25111 6.77112 5.25111 6.84398C5.25111 6.91684 5.15213 7.07344 5.03118 7.19189C4.83654 7.38252 4.79628 7.39264 4.68111 7.27984C4.60952 7.20972 4.55096 7.09178 4.55096 7.01764C4.55096 6.94358 4.51158 6.88298 4.46344 6.88298C4.41531 6.88298 4.37592 6.82135 4.37592 6.74592C4.37592 6.67058 4.25777 6.50078 4.11337 6.36869C3.96896 6.23661 3.85081 6.07529 3.85081 6.01041C3.85081 5.94544 3.77205 5.83667 3.67578 5.76869C3.5795 5.70072 3.50074 5.58501 3.50074 5.51155C3.50074 5.43809 3.42197 5.32238 3.3257 5.25441C3.22943 5.18644 3.15066 5.07072 3.15066 4.99727C3.15066 4.92381 3.0719 4.80809 2.97563 4.74012C2.87936 4.67215 2.80059 4.56338 2.80059 4.49841C2.80059 4.43352 2.68244 4.27221 2.53804 4.14012C2.39363 4.00804 2.27548 3.84672 2.27548 3.78184C2.27548 3.71687 2.19671 3.60809 2.10044 3.54012C2.00417 3.47215 1.92541 3.3645 1.92541 3.30081C1.92541 3.01958 1.68578 2.94012 0.837643 2.94012H0V7.48298ZM20.8294 7.48298V12.0258H21.6171H22.4047V8.16869V4.31155H23.9425C25.6097 4.31155 25.7304 4.28009 25.7304 3.84621C25.7304 3.72501 25.7698 3.62584 25.8179 3.62584C25.8661 3.62584 25.9055 3.51012 25.9055 3.36869C25.9055 3.22727 25.9448 3.11155 25.993 3.11155C26.0411 3.11155 26.0805 3.07298 26.0805 3.02584C26.0805 2.97064 25.1469 2.94012 23.4549 2.94012H20.8294V7.48298ZM43.7592 7.48298V12.0258H44.506C45.2415 12.0258 45.2575 12.0213 45.5562 11.7287C45.7231 11.5653 45.8597 11.3879 45.8597 11.3346C45.8597 11.2812 45.9778 11.1294 46.1222 10.9973C46.2666 10.8652 46.3848 10.7109 46.3848 10.6544C46.3848 10.5979 46.5029 10.4436 46.6473 10.3116C46.7917 10.1795 46.9099 10.0252 46.9099 9.96869C46.9099 9.91221 47.028 9.75792 47.1725 9.62584C47.3169 9.49375 47.435 9.33947 47.435 9.28298C47.435 9.22649 47.5532 9.07221 47.6976 8.94012C47.842 8.80804 47.9601 8.65375 47.9601 8.59727C47.9601 8.54078 48.0783 8.38649 48.2227 8.25441C48.3671 8.12232 48.4852 7.96804 48.4852 7.91155C48.4852 7.85507 48.6034 7.70078 48.7478 7.56869C48.8922 7.43661 49.0103 7.28232 49.0103 7.22584C49.0103 7.16935 49.1285 7.01507 49.2729 6.88298C49.4173 6.75089 49.5354 6.59661 49.5354 6.54012C49.5354 6.48364 49.6536 6.32935 49.798 6.19727C49.9424 6.06518 50.0606 5.91192 50.0606 5.85672C50.0606 5.75378 50.2711 5.51155 50.3607 5.51155C50.3881 5.51155 50.4106 6.97727 50.4106 8.76869V12.0258H51.2858H52.161V7.48298V2.94012H51.2358C50.3123 2.94012 50.0606 3.01367 50.0606 3.28358C50.0606 3.33775 49.903 3.53035 49.7105 3.71155C49.5179 3.89275 49.3604 4.08638 49.3604 4.14184C49.3604 4.19738 49.2423 4.35089 49.0979 4.48298C48.9535 4.61507 48.8353 4.76935 48.8353 4.82584C48.8353 4.88232 48.7172 5.03661 48.5727 5.16869C48.4283 5.30078 48.3102 5.45507 48.3102 5.51155C48.3102 5.56804 48.192 5.72232 48.0476 5.85441C47.9032 5.98649 47.7851 6.14078 47.7851 6.19727C47.7851 6.25375 47.6669 6.40804 47.5225 6.54012C47.3781 6.67221 47.26 6.82649 47.26 6.88298C47.26 6.93947 47.1418 7.09375 46.9974 7.22584C46.853 7.35792 46.7349 7.51221 46.7349 7.56869C46.7349 7.62518 46.6167 7.77947 46.4723 7.91155C46.3279 8.04364 46.2097 8.19792 46.2097 8.25441C46.2097 8.31089 46.0916 8.46518 45.9472 8.59727C45.8028 8.72935 45.6846 8.89915 45.6846 8.97449C45.6846 9.04992 45.6453 9.11155 45.5971 9.11155C45.5404 9.11155 45.5096 8.02581 45.5096 6.02584V2.94012H44.6344H43.7592V7.48298ZM54.4365 7.48298V12.0258H55.2241H56.0118V10.0544V8.08298H58.2873H60.5628V10.0544V12.0258H61.438H62.3131V7.48298V2.94012H61.438H60.5628V4.70335C60.5628 6.11729 60.538 6.49092 60.4377 6.58906C60.2537 6.76941 56.3209 6.76941 56.1369 6.58906C56.0366 6.49092 56.0118 6.11729 56.0118 4.70335V2.94012H55.2241H54.4365V7.48298ZM67.5643 7.48298V12.0258H68.4394H69.3146V8.94012C69.3146 7.24298 69.3371 5.85441 69.3646 5.85441C69.4603 5.85441 69.6647 6.10007 69.6647 6.2151C69.6647 6.27878 69.7435 6.38644 69.8397 6.45441C69.936 6.52238 70.0148 6.63115 70.0148 6.69612C70.0148 6.76101 70.1329 6.92232 70.2773 7.05441C70.4217 7.18649 70.5399 7.34781 70.5399 7.41269C70.5399 7.47767 70.6186 7.58644 70.7149 7.65441C70.8112 7.72238 70.89 7.83809 70.89 7.91155C70.89 7.98501 70.9687 8.10072 71.065 8.16869C71.1613 8.23667 71.24 8.34544 71.24 8.41041C71.24 8.4753 71.3582 8.63661 71.5026 8.76869C71.647 8.90078 71.7651 9.05404 71.7651 9.10924C71.7651 9.3333 72.0238 9.45441 72.5028 9.45441C72.9119 9.45441 72.9904 9.4299 72.9904 9.30192C72.9904 9.21801 73.0692 9.09381 73.1654 9.02584C73.2617 8.95787 73.3405 8.84215 73.3405 8.76869C73.3405 8.69524 73.4192 8.57952 73.5155 8.51155C73.6118 8.44358 73.6905 8.31938 73.6905 8.23547C73.6905 8.15164 73.7299 8.08298 73.7781 8.08298C73.8262 8.08298 73.8656 8.01432 73.8656 7.9305C73.8656 7.84658 73.9444 7.72238 74.0406 7.65441C74.1369 7.58644 74.2157 7.47072 74.2157 7.39727C74.2157 7.32381 74.2944 7.20809 74.3907 7.14012C74.487 7.07215 74.5657 6.95644 74.5657 6.88298C74.5657 6.80952 74.6445 6.69381 74.7408 6.62584C74.837 6.55787 74.9158 6.43367 74.9158 6.34975C74.9158 6.26592 74.9552 6.19727 75.0033 6.19727C75.0515 6.19727 75.0908 6.12012 75.0908 6.02584C75.0908 5.93155 75.1302 5.85441 75.1784 5.85441C75.2351 5.85441 75.2659 6.94015 75.2659 8.94012V12.0258H76.1411H77.0162V7.48298V2.94012H76.1411C75.3604 2.94012 75.2659 2.95658 75.2659 3.09261C75.2659 3.17652 75.1871 3.30072 75.0908 3.36869C74.9946 3.43667 74.9158 3.56087 74.9158 3.64478C74.9158 3.72861 74.8764 3.79727 74.8283 3.79727C74.7802 3.79727 74.7408 3.86592 74.7408 3.94975C74.7408 4.03366 74.662 4.15787 74.5657 4.22584C74.4695 4.29381 74.3907 4.40952 74.3907 4.48298C74.3907 4.55644 74.3119 4.67215 74.2157 4.74012C74.1194 4.80809 74.0406 4.92381 74.0406 4.99727C74.0406 5.07072 73.9619 5.18644 73.8656 5.25441C73.7693 5.32238 73.6905 5.43809 73.6905 5.51155C73.6905 5.58501 73.6118 5.70072 73.5155 5.76869C73.4192 5.83667 73.3405 5.95238 73.3405 6.02584C73.3405 6.09929 73.2617 6.21501 73.1654 6.28298C73.0692 6.35095 72.9904 6.47515 72.9904 6.55907C72.9904 6.6429 72.951 6.71155 72.9029 6.71155C72.8547 6.71155 72.8154 6.77112 72.8154 6.84398C72.8154 6.96741 72.4445 7.39727 72.3379 7.39727C72.3117 7.39727 72.2902 7.32861 72.2902 7.24478C72.2902 7.16087 72.2115 7.03667 72.1152 6.96869C72.0189 6.90072 71.9402 6.78501 71.9402 6.71155C71.9402 6.63809 71.8614 6.52238 71.7651 6.45441C71.6689 6.38644 71.5901 6.27767 71.5901 6.21269C71.5901 6.14781 71.472 5.98649 71.3275 5.85441C71.1831 5.72232 71.065 5.56101 71.065 5.49612C71.065 5.43115 70.9862 5.32238 70.89 5.25441C70.7937 5.18644 70.7149 5.07072 70.7149 4.99727C70.7149 4.92381 70.6361 4.80809 70.5399 4.74012C70.4436 4.67215 70.3648 4.55644 70.3648 4.48298C70.3648 4.40952 70.2861 4.29381 70.1898 4.22584C70.0935 4.15787 70.0148 4.04909 70.0148 3.98412C70.0148 3.91924 69.8966 3.75792 69.7522 3.62584C69.6078 3.49375 69.4897 3.34049 69.4897 3.28529C69.4897 3.02035 69.237 2.94012 68.4019 2.94012H67.5643V7.48298ZM90.3191 7.48298V12.0258H92.1569C93.3238 12.0258 93.9948 11.9946 93.9948 11.9401C93.9948 11.893 94.1524 11.8544 94.3449 11.8544C94.5374 11.8544 94.695 11.8158 94.695 11.7687C94.695 11.7216 94.8045 11.683 94.9382 11.683C95.081 11.683 95.2335 11.6122 95.3076 11.5116C95.377 11.4173 95.486 11.3401 95.5497 11.3401C95.7094 11.3401 96.0953 10.9488 96.0953 10.7868C96.0953 10.714 96.1347 10.6544 96.1828 10.6544C96.2309 10.6544 96.2703 10.5773 96.2703 10.483C96.2703 10.3887 96.3097 10.3116 96.3578 10.3116C96.4117 10.3116 96.4453 9.88298 96.4453 9.19727C96.4453 8.51155 96.4117 8.08298 96.3578 8.08298C96.3097 8.08298 96.2703 8.00584 96.2703 7.91155C96.2703 7.81727 96.2309 7.74012 96.1828 7.74012C96.1347 7.74012 96.0953 7.68055 96.0953 7.6077C96.0953 7.43618 95.7055 7.05441 95.5303 7.05441C95.4559 7.05441 95.3951 7.01584 95.3951 6.96869C95.3951 6.92155 95.3164 6.88298 95.2201 6.88298C95.1238 6.88298 95.0451 6.84441 95.0451 6.79727C95.0451 6.75012 94.9663 6.71155 94.87 6.71155C94.7737 6.71155 94.695 6.67298 94.695 6.62584C94.695 6.57818 94.4616 6.54012 94.1699 6.54012C93.8782 6.54012 93.6448 6.50207 93.6448 6.45441C93.6448 6.40298 93.2947 6.36869 92.7696 6.36869H91.8944V5.34012V4.31155H93.8198C95.6868 4.31155 95.7452 4.30632 95.7452 4.14012C95.7452 4.04584 95.7846 3.96869 95.8327 3.96869C95.8809 3.96869 95.9202 3.85298 95.9202 3.71155C95.9202 3.57012 95.9596 3.45441 96.0078 3.45441C96.0559 3.45441 96.0953 3.33869 96.0953 3.19727V2.94012H93.2072H90.3191V7.48298ZM98.3708 7.48298V12.0258H99.1175C99.8531 12.0258 99.869 12.0213 100.168 11.7287C100.335 11.5653 100.471 11.3879 100.471 11.3346C100.471 11.2812 100.589 11.1294 100.734 10.9973C100.878 10.8652 100.996 10.7109 100.996 10.6544C100.996 10.5979 101.114 10.4436 101.259 10.3116C101.403 10.1795 101.521 10.0252 101.521 9.96869C101.521 9.91221 101.64 9.75792 101.784 9.62584C101.928 9.49375 102.047 9.33947 102.047 9.28298C102.047 9.22649 102.165 9.07221 102.309 8.94012C102.453 8.80804 102.572 8.65375 102.572 8.59727C102.572 8.54078 102.69 8.38649 102.834 8.25441C102.979 8.12232 103.097 7.96804 103.097 7.91155C103.097 7.85507 103.215 7.70078 103.359 7.56869C103.504 7.43661 103.622 7.28232 103.622 7.22584C103.622 7.16935 103.74 7.01507 103.884 6.88298C104.029 6.75089 104.147 6.59661 104.147 6.54012C104.147 6.48364 104.265 6.32935 104.41 6.19727C104.554 6.06518 104.672 5.89538 104.672 5.82004C104.672 5.74015 104.745 5.68298 104.847 5.68298C105.019 5.68298 105.022 5.74015 105.022 8.85441V12.0258H105.81H106.597V7.48298V2.94012H105.762C104.992 2.94012 104.91 2.9565 104.712 3.15055C104.594 3.26627 104.497 3.40504 104.497 3.45895C104.497 3.51295 104.379 3.66518 104.234 3.79727C104.09 3.92935 103.972 4.08364 103.972 4.14012C103.972 4.19661 103.854 4.35089 103.709 4.48298C103.565 4.61507 103.447 4.76858 103.447 4.82412C103.447 4.87958 103.289 5.07321 103.097 5.25441C102.904 5.43561 102.747 5.62924 102.747 5.6847C102.747 5.74024 102.629 5.89375 102.484 6.02584C102.34 6.15792 102.222 6.31221 102.222 6.36869C102.222 6.42518 102.103 6.57947 101.959 6.71155C101.815 6.84364 101.696 6.99792 101.696 7.05441C101.696 7.11089 101.578 7.26518 101.434 7.39727C101.289 7.52935 101.171 7.68364 101.171 7.74012C101.171 7.79661 101.053 7.95089 100.909 8.08298C100.764 8.21507 100.646 8.37638 100.646 8.44127C100.646 8.50624 100.567 8.61501 100.471 8.68298C100.375 8.75095 100.296 8.87515 100.296 8.95907C100.296 9.0429 100.257 9.11155 100.209 9.11155C100.152 9.11155 100.121 8.02581 100.121 6.02584V2.94012H99.2459H98.3708V7.48298ZM110.973 3.36869C110.973 3.60441 110.934 3.79727 110.886 3.79727C110.836 3.79727 110.798 4.05441 110.798 4.39727C110.798 4.74012 110.761 4.99727 110.711 4.99727C110.661 4.99727 110.623 5.25441 110.623 5.59727C110.623 5.94012 110.586 6.19727 110.536 6.19727C110.488 6.19727 110.448 6.39012 110.448 6.62584C110.448 6.86155 110.409 7.05441 110.361 7.05441C110.313 7.05441 110.273 7.20869 110.273 7.39727C110.273 7.58584 110.234 7.74012 110.186 7.74012C110.138 7.74012 110.098 7.89441 110.098 8.08298C110.098 8.27155 110.059 8.42584 110.011 8.42584C109.963 8.42584 109.923 8.54155 109.923 8.68298C109.923 8.82441 109.884 8.94012 109.836 8.94012C109.788 8.94012 109.748 9.01727 109.748 9.11155C109.748 9.20584 109.709 9.28298 109.661 9.28298C109.612 9.28298 109.573 9.36012 109.573 9.45441C109.573 9.54869 109.534 9.62584 109.486 9.62584C109.437 9.62584 109.398 9.68498 109.398 9.75724C109.398 9.82958 109.262 10.0224 109.095 10.1858C108.838 10.4375 108.731 10.483 108.395 10.483H107.998V11.2544V12.0258H108.785C109.252 12.0258 109.573 11.991 109.573 11.9401C109.573 11.893 109.633 11.8544 109.706 11.8544C109.88 11.8544 110.798 10.9546 110.798 10.7849C110.798 10.7131 110.838 10.6544 110.886 10.6544C110.934 10.6544 110.973 10.5773 110.973 10.483C110.973 10.3887 111.013 10.3116 111.061 10.3116C111.109 10.3116 111.148 10.2344 111.148 10.1401C111.148 10.0458 111.188 9.96869 111.236 9.96869C111.284 9.96869 111.323 9.85298 111.323 9.71155C111.323 9.57012 111.363 9.45441 111.411 9.45441C111.459 9.45441 111.499 9.33869 111.499 9.19727C111.499 9.05584 111.538 8.94012 111.586 8.94012C111.634 8.94012 111.674 8.78584 111.674 8.59727C111.674 8.40869 111.713 8.25441 111.761 8.25441C111.809 8.25441 111.849 8.06155 111.849 7.82584C111.849 7.59012 111.888 7.39727 111.936 7.39727C111.984 7.39727 112.024 7.20441 112.024 6.96869C112.024 6.73298 112.063 6.54012 112.111 6.54012C112.161 6.54012 112.199 6.28298 112.199 5.94012C112.199 5.59727 112.236 5.34012 112.286 5.34012C112.335 5.34012 112.374 5.11152 112.374 4.82584V4.31155H113.336H114.299V8.16869V12.0258H115.087H115.874V7.48298V2.94012H113.424H110.973V3.36869ZM118.15 7.48298V12.0258H120.075C121.301 12.0258 122.001 11.9946 122.001 11.9401C122.001 11.893 122.158 11.8544 122.351 11.8544C122.543 11.8544 122.701 11.8158 122.701 11.7687C122.701 11.7216 122.78 11.683 122.876 11.683C122.972 11.683 123.051 11.6444 123.051 11.5973C123.051 11.5501 123.111 11.5116 123.185 11.5116C123.358 11.5116 124.101 10.7839 124.101 10.6138C124.101 10.5419 124.141 10.483 124.189 10.483C124.237 10.483 124.276 10.4058 124.276 10.3116C124.276 10.2173 124.316 10.1401 124.364 10.1401C124.417 10.1401 124.451 9.74009 124.451 9.11155C124.451 8.48301 124.417 8.08298 124.364 8.08298C124.316 8.08298 124.276 8.00584 124.276 7.91155C124.276 7.81727 124.237 7.74012 124.189 7.74012C124.141 7.74012 124.101 7.68098 124.101 7.60872C124.101 7.43806 123.534 6.88298 123.36 6.88298C123.286 6.88298 123.226 6.84441 123.226 6.79727C123.226 6.75012 123.147 6.71155 123.051 6.71155C122.955 6.71155 122.876 6.67298 122.876 6.62584C122.876 6.57869 122.758 6.54012 122.613 6.54012C122.469 6.54012 122.351 6.50155 122.351 6.45441C122.351 6.40675 122.117 6.36869 121.826 6.36869C121.534 6.36869 121.301 6.33064 121.301 6.28298C121.301 6.23301 121.009 6.19727 120.6 6.19727H119.9V4.56869V2.94012H119.025H118.15V7.48298ZM126.377 7.48298V12.0258H127.164H127.952V10.0544V8.08298H130.227H132.503V10.0544V12.0258H133.378H134.253V7.48298V2.94012H133.378H132.503V4.70335C132.503 6.11729 132.478 6.49092 132.378 6.58906C132.194 6.76941 128.261 6.76941 128.077 6.58906C127.977 6.49092 127.952 6.11729 127.952 4.70335V2.94012H127.164H126.377V7.48298ZM136.529 7.48298V12.0258H138.279C139.388 12.0258 140.03 11.9944 140.03 11.9401C140.03 11.893 140.187 11.8544 140.38 11.8544C140.572 11.8544 140.73 11.8158 140.73 11.7687C140.73 11.7216 140.808 11.683 140.905 11.683C141.001 11.683 141.08 11.6444 141.08 11.5973C141.08 11.5501 141.15 11.5116 141.235 11.5116C141.321 11.5116 141.448 11.4344 141.517 11.3401C141.587 11.2458 141.714 11.1687 141.799 11.1687C141.89 11.1687 141.955 11.1053 141.955 11.0162C141.955 10.9323 142.034 10.8081 142.13 10.7401C142.226 10.6722 142.305 10.548 142.305 10.464C142.305 10.3802 142.344 10.3116 142.393 10.3116C142.447 10.3116 142.48 9.85444 142.48 9.11155C142.48 8.36867 142.447 7.91155 142.393 7.91155C142.344 7.91155 142.305 7.85284 142.305 7.7811C142.305 7.61138 141.386 6.71155 141.213 6.71155C141.14 6.71155 141.08 6.67298 141.08 6.62584C141.08 6.57869 140.962 6.54012 140.817 6.54012C140.673 6.54012 140.555 6.50155 140.555 6.45441C140.555 6.40547 140.292 6.36869 139.942 6.36869C139.592 6.36869 139.329 6.33192 139.329 6.28298C139.329 6.23532 139.096 6.19727 138.804 6.19727H138.279V4.56869V2.94012H137.404H136.529V7.48298ZM143.705 7.48298V12.0258H144.493H145.281V7.48298V2.94012H144.493H143.705V7.48298ZM147.031 3.02584C147.031 3.07298 147.07 3.11155 147.119 3.11155C147.167 3.11155 147.206 3.18021 147.206 3.26404C147.206 3.34795 147.285 3.47215 147.381 3.54012C147.477 3.60809 147.556 3.7323 147.556 3.81621C147.556 3.90004 147.596 3.96869 147.644 3.96869C147.692 3.96869 147.731 4.03735 147.731 4.12118C147.731 4.20509 147.81 4.32929 147.906 4.39727C148.002 4.46524 148.081 4.58095 148.081 4.65441C148.081 4.72787 148.16 4.84358 148.256 4.91155C148.353 4.97952 148.431 5.09524 148.431 5.16869C148.431 5.24215 148.51 5.35787 148.606 5.42584C148.703 5.49381 148.781 5.60952 148.781 5.68298C148.781 5.75644 148.86 5.87215 148.956 5.94012C149.053 6.00809 149.131 6.12381 149.131 6.19727C149.131 6.27072 149.21 6.38644 149.306 6.45441C149.403 6.52238 149.482 6.63809 149.482 6.71155C149.482 6.78501 149.56 6.90072 149.657 6.96869C149.753 7.03667 149.832 7.1577 149.832 7.23758C149.832 7.31755 149.881 7.40026 149.941 7.42144C150.015 7.44749 149.987 7.51512 149.853 7.63152C149.745 7.72589 149.657 7.85061 149.657 7.90864C149.657 7.96667 149.538 8.12232 149.394 8.25441C149.25 8.38649 149.131 8.54781 149.131 8.61269C149.131 8.67766 149.053 8.78644 148.956 8.85441C148.86 8.92238 148.781 9.03115 148.781 9.09612C148.781 9.16101 148.663 9.32232 148.519 9.45441C148.374 9.58649 148.256 9.74781 148.256 9.81269C148.256 9.87767 148.178 9.98644 148.081 10.0544C147.985 10.1224 147.906 10.2312 147.906 10.2961C147.906 10.361 147.788 10.5223 147.644 10.6544C147.499 10.7865 147.381 10.9478 147.381 11.0127C147.381 11.0777 147.302 11.1864 147.206 11.2544C147.11 11.3224 147.031 11.4381 147.031 11.5116C147.031 11.585 146.952 11.7007 146.856 11.7687C146.76 11.8367 146.681 11.9223 146.681 11.9591C146.681 11.9958 147.096 12.0258 147.604 12.0258C148.467 12.0258 148.541 12.0122 148.742 11.8154C148.86 11.6997 148.956 11.554 148.956 11.4915C148.956 11.4291 149.035 11.3224 149.131 11.2544C149.228 11.1864 149.306 11.0777 149.306 11.0127C149.306 10.9478 149.425 10.7865 149.569 10.6544C149.713 10.5223 149.832 10.361 149.832 10.2961C149.832 10.2312 149.91 10.1224 150.007 10.0544C150.103 9.98644 150.182 9.87767 150.182 9.81269C150.182 9.74781 150.3 9.58649 150.444 9.45441C150.589 9.32232 150.707 9.16906 150.707 9.11386C150.707 9.05875 150.766 8.95572 150.838 8.88501C150.955 8.77075 150.984 8.77075 151.101 8.88501C151.173 8.95572 151.232 9.06569 151.232 9.12938C151.232 9.19307 151.311 9.30072 151.407 9.36869C151.503 9.43667 151.582 9.55238 151.582 9.62584C151.582 9.69929 151.661 9.81501 151.757 9.88298C151.853 9.95095 151.932 10.0667 151.932 10.1401C151.932 10.2136 152.011 10.3293 152.107 10.3973C152.203 10.4652 152.282 10.581 152.282 10.6544C152.282 10.7279 152.361 10.8436 152.457 10.9116C152.553 10.9795 152.632 11.0952 152.632 11.1687C152.632 11.2422 152.711 11.3579 152.807 11.4258C152.904 11.4938 152.982 11.6015 152.982 11.6652C152.982 11.9532 153.219 12.0258 154.158 12.0258C154.986 12.0258 155.083 12.0099 155.083 11.8734C155.083 11.7894 155.004 11.6652 154.908 11.5973C154.811 11.5293 154.733 11.4136 154.733 11.3401C154.733 11.2667 154.654 11.151 154.558 11.083C154.461 11.015 154.383 10.8993 154.383 10.8258C154.383 10.7524 154.304 10.6367 154.208 10.5687C154.111 10.5007 154.032 10.385 154.032 10.3116C154.032 10.2381 153.954 10.1224 153.857 10.0544C153.761 9.98644 153.682 9.87072 153.682 9.79727C153.682 9.72381 153.604 9.60809 153.507 9.54012C153.411 9.47215 153.332 9.35644 153.332 9.28298C153.332 9.20952 153.254 9.09381 153.157 9.02584C153.061 8.95787 152.982 8.84215 152.982 8.76869C152.982 8.69524 152.904 8.57952 152.807 8.51155C152.711 8.44358 152.632 8.32787 152.632 8.25441C152.632 8.18095 152.553 8.06524 152.457 7.99727C152.361 7.92929 152.282 7.80509 152.282 7.72118C152.282 7.63735 152.243 7.56869 152.195 7.56869C152.04 7.56869 152.101 7.26775 152.282 7.14012C152.378 7.07215 152.457 6.95644 152.457 6.88298C152.457 6.80952 152.536 6.69381 152.632 6.62584C152.728 6.55787 152.807 6.44909 152.807 6.38412C152.807 6.31924 152.925 6.15792 153.07 6.02584C153.214 5.89375 153.332 5.73244 153.332 5.66755C153.332 5.60258 153.411 5.49381 153.507 5.42584C153.604 5.35787 153.682 5.24909 153.682 5.18412C153.682 5.11924 153.801 4.95792 153.945 4.82584C154.089 4.69375 154.208 4.53244 154.208 4.46755C154.208 4.40258 154.286 4.29381 154.383 4.22584C154.479 4.15787 154.558 4.04909 154.558 3.98412C154.558 3.91924 154.676 3.75792 154.82 3.62584C154.965 3.49375 155.083 3.32395 155.083 3.24861C155.083 3.17318 155.122 3.11155 155.17 3.11155C155.218 3.11155 155.258 3.07298 155.258 3.02584C155.258 2.97415 154.892 2.94012 154.335 2.94012C153.472 2.94012 153.398 2.95375 153.197 3.15055C153.079 3.26627 152.982 3.41198 152.982 3.47447C152.982 3.53687 152.904 3.64358 152.807 3.71155C152.711 3.77952 152.632 3.89524 152.632 3.96869C152.632 4.04215 152.553 4.15787 152.457 4.22584C152.361 4.29381 152.282 4.40258 152.282 4.46755C152.282 4.53244 152.164 4.69375 152.02 4.82584C151.875 4.95792 151.757 5.11924 151.757 5.18412C151.757 5.24909 151.678 5.35787 151.582 5.42584C151.486 5.49381 151.407 5.60147 151.407 5.66515C151.407 5.82209 151.188 6.02584 151.019 6.02584C150.944 6.02584 150.882 5.95718 150.882 5.87335C150.882 5.78944 150.803 5.66524 150.707 5.59727C150.611 5.52929 150.532 5.41358 150.532 5.34012C150.532 5.26667 150.453 5.15095 150.357 5.08298C150.26 5.01501 150.182 4.89929 150.182 4.82584C150.182 4.75238 150.103 4.63667 150.007 4.56869C149.91 4.50072 149.832 4.37652 149.832 4.29261C149.832 4.20878 149.792 4.14012 149.744 4.14012C149.696 4.14012 149.657 4.07147 149.657 3.98764C149.657 3.90372 149.578 3.77952 149.482 3.71155C149.385 3.64358 149.306 3.53687 149.306 3.47447C149.306 3.41198 149.21 3.26627 149.092 3.15055C148.891 2.95375 148.817 2.94012 147.954 2.94012C147.397 2.94012 147.031 2.97415 147.031 3.02584ZM158.758 3.02584C158.758 3.07298 158.798 3.11155 158.846 3.11155C158.894 3.11155 158.934 3.18869 158.934 3.28298C158.934 3.37727 158.973 3.45441 159.021 3.45441C159.069 3.45441 159.109 3.53155 159.109 3.62584C159.109 3.72012 159.148 3.79727 159.196 3.79727C159.244 3.79727 159.284 3.87441 159.284 3.96869C159.284 4.06298 159.323 4.14012 159.371 4.14012C159.419 4.14012 159.459 4.21727 159.459 4.31155C159.459 4.40584 159.498 4.48298 159.546 4.48298C159.594 4.48298 159.634 4.56012 159.634 4.65441C159.634 4.74869 159.673 4.82584 159.721 4.82584C159.769 4.82584 159.809 4.90298 159.809 4.99727C159.809 5.09155 159.848 5.16869 159.896 5.16869C159.944 5.16869 159.984 5.24584 159.984 5.34012C159.984 5.43441 160.023 5.51155 160.071 5.51155C160.119 5.51155 160.159 5.58869 160.159 5.68298C160.159 5.77727 160.198 5.85441 160.246 5.85441C160.294 5.85441 160.334 5.93155 160.334 6.02584C160.334 6.12012 160.373 6.19727 160.421 6.19727C160.469 6.19727 160.509 6.27441 160.509 6.36869C160.509 6.46298 160.548 6.54012 160.596 6.54012C160.645 6.54012 160.684 6.61727 160.684 6.71155C160.684 6.80584 160.723 6.88298 160.771 6.88298C160.82 6.88298 160.859 6.95164 160.859 7.03547C160.859 7.11938 160.938 7.24358 161.034 7.31155C161.13 7.37952 161.209 7.50372 161.209 7.58764C161.209 7.67147 161.248 7.74012 161.297 7.74012C161.345 7.74012 161.384 7.81727 161.384 7.91155C161.384 8.00584 161.423 8.08298 161.472 8.08298C161.52 8.08298 161.559 8.16012 161.559 8.25441C161.559 8.34869 161.598 8.42584 161.647 8.42584C161.695 8.42584 161.734 8.50298 161.734 8.59727C161.734 8.69155 161.773 8.76869 161.822 8.76869C161.87 8.76869 161.909 8.84584 161.909 8.94012C161.909 9.03441 161.949 9.11155 161.997 9.11155C162.158 9.11155 162.09 9.58427 161.909 9.71155C161.813 9.77952 161.734 9.88573 161.734 9.94761C161.734 10.0095 161.598 10.1939 161.431 10.3572C161.146 10.6356 161.091 10.6544 160.555 10.6544H159.984V11.4258V12.1973H160.684C161.092 12.1973 161.384 12.1615 161.384 12.1116C161.384 12.0644 161.502 12.0258 161.647 12.0258C161.791 12.0258 161.909 11.9873 161.909 11.9401C161.909 11.893 161.969 11.8544 162.042 11.8544C162.205 11.8544 163.134 10.9598 163.134 10.8037C163.134 10.7424 163.213 10.6367 163.309 10.5687C163.406 10.5007 163.484 10.3765 163.484 10.2926C163.484 10.2088 163.524 10.1401 163.572 10.1401C163.62 10.1401 163.66 10.063 163.66 9.96869C163.66 9.87441 163.699 9.79727 163.747 9.79727C163.795 9.79727 163.835 9.72012 163.835 9.62584C163.835 9.53155 163.874 9.45441 163.922 9.45441C163.97 9.45441 164.01 9.33869 164.01 9.19727C164.01 9.05584 164.049 8.94012 164.097 8.94012C164.145 8.94012 164.185 8.86298 164.185 8.76869C164.185 8.67441 164.224 8.59727 164.272 8.59727C164.32 8.59727 164.36 8.52012 164.36 8.42584C164.36 8.33155 164.399 8.25441 164.447 8.25441C164.495 8.25441 164.535 8.17727 164.535 8.08298C164.535 7.98869 164.574 7.91155 164.622 7.91155C164.67 7.91155 164.71 7.83441 164.71 7.74012C164.71 7.64584 164.749 7.56869 164.797 7.56869C164.845 7.56869 164.885 7.49155 164.885 7.39727C164.885 7.30298 164.924 7.22584 164.972 7.22584C165.02 7.22584 165.06 7.14869 165.06 7.05441C165.06 6.96012 165.099 6.88298 165.147 6.88298C165.195 6.88298 165.235 6.80584 165.235 6.71155C165.235 6.61727 165.274 6.54012 165.322 6.54012C165.371 6.54012 165.41 6.42441 165.41 6.28298C165.41 6.14155 165.449 6.02584 165.497 6.02584C165.546 6.02584 165.585 5.94869 165.585 5.85441C165.585 5.76012 165.624 5.68298 165.672 5.68298C165.721 5.68298 165.76 5.60584 165.76 5.51155C165.76 5.41727 165.799 5.34012 165.847 5.34012C165.896 5.34012 165.935 5.26298 165.935 5.16869C165.935 5.07441 165.974 4.99727 166.023 4.99727C166.071 4.99727 166.11 4.92012 166.11 4.82584C166.11 4.73155 166.149 4.65441 166.198 4.65441C166.246 4.65441 166.285 4.57727 166.285 4.48298C166.285 4.38869 166.324 4.31155 166.373 4.31155C166.421 4.31155 166.46 4.23441 166.46 4.14012C166.46 4.04584 166.499 3.96869 166.548 3.96869C166.596 3.96869 166.635 3.85298 166.635 3.71155C166.635 3.57012 166.675 3.45441 166.723 3.45441C166.771 3.45441 166.81 3.37727 166.81 3.28298C166.81 3.18869 166.85 3.11155 166.898 3.11155C166.946 3.11155 166.985 3.07298 166.985 3.02584C166.985 2.97407 166.619 2.94012 166.06 2.94012C165.051 2.94012 164.885 3.00595 164.885 3.40547C164.885 3.52667 164.845 3.62584 164.797 3.62584C164.749 3.62584 164.71 3.70298 164.71 3.79727C164.71 3.89155 164.67 3.96869 164.622 3.96869C164.574 3.96869 164.535 4.04584 164.535 4.14012C164.535 4.23441 164.495 4.31155 164.447 4.31155C164.399 4.31155 164.36 4.42727 164.36 4.56869C164.36 4.71012 164.32 4.82584 164.272 4.82584C164.224 4.82584 164.185 4.90298 164.185 4.99727C164.185 5.09155 164.145 5.16869 164.097 5.16869C164.049 5.16869 164.01 5.28441 164.01 5.42584C164.01 5.56727 163.97 5.68298 163.922 5.68298C163.874 5.68298 163.835 5.76012 163.835 5.85441C163.835 5.94869 163.795 6.02584 163.747 6.02584C163.699 6.02584 163.66 6.10298 163.66 6.19727C163.66 6.29155 163.62 6.36869 163.572 6.36869C163.524 6.36869 163.484 6.48441 163.484 6.62584C163.484 6.76727 163.445 6.88298 163.397 6.88298C163.349 6.88298 163.309 6.96012 163.309 7.05441C163.309 7.14869 163.27 7.22584 163.222 7.22584C163.174 7.22584 163.134 7.30298 163.134 7.39727C163.134 7.49155 163.112 7.56869 163.084 7.56869C162.982 7.56869 162.784 7.31901 162.784 7.18906C162.784 7.11501 162.745 7.05441 162.697 7.05441C162.649 7.05441 162.609 6.97727 162.609 6.88298C162.609 6.78869 162.57 6.71155 162.522 6.71155C162.474 6.71155 162.434 6.63441 162.434 6.54012C162.434 6.44584 162.395 6.36869 162.347 6.36869C162.299 6.36869 162.259 6.25298 162.259 6.11155C162.259 5.97012 162.22 5.85441 162.172 5.85441C162.124 5.85441 162.084 5.77727 162.084 5.68298C162.084 5.58869 162.045 5.51155 161.997 5.51155C161.949 5.51155 161.909 5.43441 161.909 5.34012C161.909 5.24584 161.87 5.16869 161.822 5.16869C161.773 5.16869 161.734 5.09155 161.734 4.99727C161.734 4.90298 161.695 4.82584 161.647 4.82584C161.598 4.82584 161.559 4.74869 161.559 4.65441C161.559 4.56012 161.52 4.48298 161.472 4.48298C161.423 4.48298 161.384 4.40584 161.384 4.31155C161.384 4.21727 161.345 4.14012 161.297 4.14012C161.248 4.14012 161.209 4.06298 161.209 3.96869C161.209 3.87441 161.17 3.79727 161.121 3.79727C161.073 3.79727 161.034 3.72012 161.034 3.62584C161.034 3.53155 160.995 3.45441 160.946 3.45441C160.898 3.45441 160.859 3.39381 160.859 3.31975C160.859 3.01161 160.638 2.94012 159.684 2.94012C159.125 2.94012 158.758 2.97407 158.758 3.02584ZM176.262 3.62584V4.31155H177.662H179.063V8.16869V12.0258H179.85H180.638V8.16869V4.31155H181.951C183.205 4.31155 183.264 4.30392 183.264 4.14012C183.264 4.04584 183.303 3.96869 183.351 3.96869C183.399 3.96869 183.439 3.85298 183.439 3.71155C183.439 3.57012 183.478 3.45441 183.526 3.45441C183.574 3.45441 183.614 3.33869 183.614 3.19727V2.94012H179.938H176.262V3.62584ZM184.839 7.48298V12.0258H185.714H186.589V10.483V8.94012H187.114C187.406 8.94012 187.64 8.90207 187.64 8.85441C187.64 8.80675 187.873 8.76869 188.165 8.76869C188.456 8.76869 188.69 8.73064 188.69 8.68298C188.69 8.63584 188.769 8.59727 188.865 8.59727C188.961 8.59727 189.04 8.55869 189.04 8.51155C189.04 8.46441 189.119 8.42584 189.215 8.42584C189.311 8.42584 189.39 8.38727 189.39 8.34012C189.39 8.29298 189.45 8.25441 189.524 8.25441C189.698 8.25441 190.265 7.69932 190.265 7.52867C190.265 7.45641 190.305 7.39727 190.353 7.39727C190.401 7.39727 190.44 7.32012 190.44 7.22584C190.44 7.13155 190.48 7.05441 190.528 7.05441C190.576 7.05441 190.615 6.93869 190.615 6.79727C190.615 6.65584 190.655 6.54012 190.703 6.54012C190.754 6.54012 190.79 6.25444 190.79 5.85441C190.79 5.45438 190.754 5.16869 190.703 5.16869C190.655 5.16869 190.615 5.05298 190.615 4.91155C190.615 4.77012 190.576 4.65441 190.528 4.65441C190.48 4.65441 190.44 4.57727 190.44 4.48298C190.44 4.38869 190.401 4.31155 190.353 4.31155C190.305 4.31155 190.265 4.25241 190.265 4.18015C190.265 4.01969 189.703 3.45441 189.543 3.45441C189.48 3.45441 189.372 3.37727 189.302 3.28298C189.228 3.18235 189.076 3.11155 188.933 3.11155C188.799 3.11155 188.69 3.07298 188.69 3.02584C188.69 2.97132 187.99 2.94012 186.764 2.94012H184.839V7.48298ZM203.568 7.48298V12.0258H204.316C204.993 12.0258 205.084 12.006 205.278 11.8154C205.397 11.6997 205.493 11.5609 205.493 11.507C205.493 11.453 205.611 11.3008 205.756 11.1687C205.9 11.0366 206.018 10.8823 206.018 10.8258C206.018 10.7694 206.137 10.6151 206.281 10.483C206.425 10.3509 206.544 10.1966 206.544 10.1401C206.544 10.0836 206.662 9.92935 206.806 9.79727C206.951 9.66518 207.069 9.51089 207.069 9.45441C207.069 9.39792 207.187 9.24364 207.331 9.11155C207.476 8.97947 207.594 8.82518 207.594 8.76869C207.594 8.71221 207.712 8.55792 207.856 8.42584C208.001 8.29375 208.119 8.13947 208.119 8.08298C208.119 8.02649 208.237 7.87221 208.381 7.74012C208.526 7.60804 208.644 7.45375 208.644 7.39727C208.644 7.34078 208.762 7.18649 208.907 7.05441C209.051 6.92232 209.169 6.76804 209.169 6.71155C209.169 6.65507 209.287 6.50078 209.432 6.36869C209.576 6.23661 209.694 6.08335 209.694 6.02815C209.694 5.92521 209.905 5.68298 209.994 5.68298C210.022 5.68298 210.044 7.11012 210.044 8.85441V12.0258H210.919H211.795V7.48298V2.94012H210.96H210.126L209.823 3.23729C209.656 3.40066 209.519 3.57809 209.519 3.63141C209.519 3.68481 209.401 3.83661 209.257 3.96869C209.112 4.10078 208.994 4.25507 208.994 4.31155C208.994 4.36804 208.876 4.52232 208.732 4.65441C208.587 4.78649 208.469 4.94078 208.469 4.99727C208.469 5.05375 208.351 5.20804 208.206 5.34012C208.062 5.47221 207.944 5.62649 207.944 5.68298C207.944 5.73947 207.826 5.89375 207.681 6.02584C207.537 6.15792 207.419 6.31221 207.419 6.36869C207.419 6.42518 207.301 6.57947 207.156 6.71155C207.012 6.84364 206.894 6.99792 206.894 7.05441C206.894 7.11089 206.775 7.26518 206.631 7.39727C206.487 7.52935 206.369 7.68364 206.369 7.74012C206.369 7.79661 206.25 7.95089 206.106 8.08298C205.962 8.21507 205.843 8.36687 205.843 8.42027C205.843 8.51601 205.281 9.11155 205.19 9.11155C205.164 9.11155 205.143 7.72298 205.143 6.02584V2.94012H204.356H203.568V7.48298ZM222.122 3.62584V4.31155H223.522H224.922V8.16869V12.0258H225.71H226.498V8.16869V4.31155H227.811C229.065 4.31155 229.123 4.30392 229.123 4.14012C229.123 4.04584 229.163 3.96869 229.211 3.96869C229.259 3.96869 229.298 3.85298 229.298 3.71155C229.298 3.57012 229.338 3.45441 229.386 3.45441C229.434 3.45441 229.473 3.33869 229.473 3.19727V2.94012H225.798H222.122V3.62584ZM230.699 7.48298V12.0258H232.712C233.995 12.0258 234.725 11.9948 234.725 11.9401C234.725 11.893 234.843 11.8544 234.987 11.8544C235.131 11.8544 235.25 11.8158 235.25 11.7687C235.25 11.7216 235.328 11.683 235.425 11.683C235.521 11.683 235.6 11.6444 235.6 11.5973C235.6 11.5501 235.66 11.5116 235.733 11.5116C235.907 11.5116 236.65 10.7839 236.65 10.6138C236.65 10.5419 236.689 10.483 236.737 10.483C236.786 10.483 236.825 10.3673 236.825 10.2258C236.825 10.0844 236.864 9.96869 236.912 9.96869C236.964 9.96869 237 9.68301 237 9.28298C237 8.88295 236.964 8.59727 236.912 8.59727C236.864 8.59727 236.825 8.52012 236.825 8.42584C236.825 8.33155 236.786 8.25441 236.737 8.25441C236.689 8.25441 236.65 8.19526 236.65 8.12301C236.65 7.95235 236.083 7.39727 235.909 7.39727C235.835 7.39727 235.775 7.35869 235.775 7.31155C235.775 7.26441 235.696 7.22584 235.6 7.22584C235.483 7.22584 235.425 7.16867 235.425 7.05441C235.425 6.95567 235.483 6.88298 235.562 6.88298C235.739 6.88298 235.95 6.67658 235.95 6.50335C235.95 6.42929 235.989 6.36869 236.037 6.36869C236.085 6.36869 236.125 6.29155 236.125 6.19727C236.125 6.10298 236.164 6.02584 236.212 6.02584C236.265 6.02584 236.3 5.68298 236.3 5.16869C236.3 4.65441 236.265 4.31155 236.212 4.31155C236.164 4.31155 236.125 4.25267 236.125 4.18075C236.125 4.01061 235.382 3.28298 235.208 3.28298C235.135 3.28298 235.075 3.24441 235.075 3.19727C235.075 3.15012 234.996 3.11155 234.9 3.11155C234.803 3.11155 234.725 3.07298 234.725 3.02584C234.725 2.97115 233.995 2.94012 232.712 2.94012H230.699V7.48298ZM84.0177 4.22584C84.0177 4.27298 84.1753 4.31155 84.3678 4.31155C84.5603 4.31155 84.7179 4.35012 84.7179 4.39727C84.7179 4.44441 84.7966 4.48298 84.8929 4.48298C84.9892 4.48298 85.0679 4.52155 85.0679 4.56869C85.0679 4.61584 85.1283 4.65441 85.2021 4.65441C85.3764 4.65441 85.9431 5.20949 85.9431 5.38015C85.9431 5.45241 85.9825 5.51155 86.0306 5.51155C86.0788 5.51155 86.1182 5.58869 86.1182 5.68298C86.1182 5.77727 86.1575 5.85441 86.2057 5.85441C86.2538 5.85441 86.2932 5.97012 86.2932 6.11155C86.2932 6.25298 86.3326 6.36869 86.3807 6.36869C86.4345 6.36869 86.4682 6.79727 86.4682 7.48298C86.4682 8.16869 86.4345 8.59727 86.3807 8.59727C86.3326 8.59727 86.2932 8.71298 86.2932 8.85441C86.2932 8.99584 86.2538 9.11155 86.2057 9.11155C86.1575 9.11155 86.1182 9.18869 86.1182 9.28298C86.1182 9.37727 86.0788 9.45441 86.0306 9.45441C85.9825 9.45441 85.9431 9.51355 85.9431 9.58581C85.9431 9.75647 85.3764 10.3116 85.2021 10.3116C85.1283 10.3116 85.0679 10.3501 85.0679 10.3973C85.0679 10.4444 84.9892 10.483 84.8929 10.483C84.7966 10.483 84.7179 10.5216 84.7179 10.5687C84.7179 10.6158 84.5603 10.6544 84.3678 10.6544C84.1753 10.6544 84.0177 10.693 84.0177 10.7401C84.0177 10.7873 83.8602 10.8258 83.6676 10.8258C83.4751 10.8258 83.3176 10.7873 83.3176 10.7401C83.3176 10.693 83.16 10.6544 82.9675 10.6544C82.775 10.6544 82.6174 10.6158 82.6174 10.5687C82.6174 10.5216 82.5387 10.483 82.4424 10.483C82.3461 10.483 82.2674 10.4444 82.2674 10.3973C82.2674 10.3501 82.2072 10.3116 82.1338 10.3116C81.9601 10.3116 81.2171 9.58392 81.2171 9.41378C81.2171 9.34187 81.1777 9.28298 81.1296 9.28298C81.0815 9.28298 81.0421 9.16727 81.0421 9.02584C81.0421 8.88441 81.0027 8.76869 80.9546 8.76869C80.9064 8.76869 80.8671 8.61441 80.8671 8.42584C80.8671 8.23727 80.8277 8.08298 80.7795 8.08298C80.7309 8.08298 80.692 7.85438 80.692 7.56869C80.692 7.28301 80.7309 7.05441 80.7795 7.05441C80.8277 7.05441 80.8671 6.86155 80.8671 6.62584C80.8671 6.39012 80.9064 6.19727 80.9546 6.19727C81.0027 6.19727 81.0421 6.08155 81.0421 5.94012C81.0421 5.79869 81.0815 5.68298 81.1296 5.68298C81.1777 5.68298 81.2171 5.62409 81.2171 5.55218C81.2171 5.38204 81.9601 4.65441 82.1338 4.65441C82.2072 4.65441 82.2674 4.61584 82.2674 4.56869C82.2674 4.52155 82.3461 4.48298 82.4424 4.48298C82.5387 4.48298 82.6174 4.44441 82.6174 4.39727C82.6174 4.35012 82.775 4.31155 82.9675 4.31155C83.16 4.31155 83.3176 4.27298 83.3176 4.22584C83.3176 4.17869 83.4751 4.14012 83.6676 4.14012C83.8602 4.14012 84.0177 4.17869 84.0177 4.22584ZM197.267 4.22584C197.267 4.27298 197.424 4.31155 197.617 4.31155C197.809 4.31155 197.967 4.35012 197.967 4.39727C197.967 4.44441 198.046 4.48298 198.142 4.48298C198.238 4.48298 198.317 4.52155 198.317 4.56869C198.317 4.61584 198.377 4.65441 198.451 4.65441C198.625 4.65441 199.192 5.20949 199.192 5.38015C199.192 5.45241 199.231 5.51155 199.28 5.51155C199.328 5.51155 199.367 5.58869 199.367 5.68298C199.367 5.77727 199.406 5.85441 199.455 5.85441C199.503 5.85441 199.542 5.97012 199.542 6.11155C199.542 6.25298 199.581 6.36869 199.63 6.36869C199.683 6.36869 199.717 6.79727 199.717 7.48298C199.717 8.16869 199.683 8.59727 199.63 8.59727C199.581 8.59727 199.542 8.71298 199.542 8.85441C199.542 8.99584 199.503 9.11155 199.455 9.11155C199.406 9.11155 199.367 9.18869 199.367 9.28298C199.367 9.37727 199.328 9.45441 199.28 9.45441C199.231 9.45441 199.192 9.51355 199.192 9.58581C199.192 9.75647 198.625 10.3116 198.451 10.3116C198.377 10.3116 198.317 10.3501 198.317 10.3973C198.317 10.4444 198.238 10.483 198.142 10.483C198.046 10.483 197.967 10.5216 197.967 10.5687C197.967 10.6158 197.809 10.6544 197.617 10.6544C197.424 10.6544 197.267 10.693 197.267 10.7401C197.267 10.7873 197.109 10.8258 196.917 10.8258C196.724 10.8258 196.566 10.7873 196.566 10.7401C196.566 10.693 196.409 10.6544 196.216 10.6544C196.024 10.6544 195.866 10.6158 195.866 10.5687C195.866 10.5216 195.788 10.483 195.691 10.483C195.595 10.483 195.516 10.4444 195.516 10.3973C195.516 10.3501 195.456 10.3116 195.383 10.3116C195.209 10.3116 194.466 9.58392 194.466 9.41378C194.466 9.34187 194.427 9.28298 194.379 9.28298C194.33 9.28298 194.291 9.16727 194.291 9.02584C194.291 8.88441 194.252 8.76869 194.203 8.76869C194.155 8.76869 194.116 8.57584 194.116 8.34012C194.116 8.10441 194.077 7.91155 194.028 7.91155C193.98 7.91155 193.941 7.71869 193.941 7.48298C193.941 7.24727 193.98 7.05441 194.028 7.05441C194.077 7.05441 194.116 6.86155 194.116 6.62584C194.116 6.39012 194.155 6.19727 194.203 6.19727C194.252 6.19727 194.291 6.08155 194.291 5.94012C194.291 5.79869 194.33 5.68298 194.379 5.68298C194.427 5.68298 194.466 5.62409 194.466 5.55218C194.466 5.38204 195.209 4.65441 195.383 4.65441C195.456 4.65441 195.516 4.61584 195.516 4.56869C195.516 4.52155 195.595 4.48298 195.691 4.48298C195.788 4.48298 195.866 4.44441 195.866 4.39727C195.866 4.35012 196.024 4.31155 196.216 4.31155C196.409 4.31155 196.566 4.27298 196.566 4.22584C196.566 4.17869 196.724 4.14012 196.917 4.14012C197.109 4.14012 197.267 4.17869 197.267 4.22584ZM187.99 4.39727C187.99 4.44441 188.05 4.48298 188.125 4.48298C188.3 4.48298 188.69 4.86475 188.69 5.03627C188.69 5.10912 188.729 5.16869 188.777 5.16869C188.825 5.16869 188.865 5.31981 188.865 5.50444C188.865 5.68915 188.914 5.86264 188.974 5.89015C189.062 5.93009 189.062 5.95015 188.974 5.9901C188.914 6.01761 188.865 6.17292 188.865 6.33526C188.865 6.76392 188.214 7.39727 187.773 7.39727C187.603 7.39727 187.465 7.43584 187.465 7.48298C187.465 7.53012 187.268 7.56869 187.027 7.56869H186.589V5.94012V4.31155H187.29C187.698 4.31155 187.99 4.34729 187.99 4.39727ZM234.246 4.60872C234.413 4.77209 234.549 4.96495 234.549 5.03729C234.549 5.10955 234.589 5.16869 234.637 5.16869C234.685 5.16869 234.725 5.28441 234.725 5.42584C234.725 5.56727 234.685 5.68298 234.637 5.68298C234.589 5.68298 234.549 5.78112 234.549 5.90112C234.549 6.18201 234.184 6.54012 233.897 6.54012C233.774 6.54012 233.674 6.57869 233.674 6.62584C233.674 6.67478 233.412 6.71155 233.062 6.71155H232.449V5.51155V4.31155H233.196C233.931 4.31155 233.947 4.31609 234.246 4.60872ZM30.6315 5.51155C30.6315 5.60584 30.6708 5.68298 30.719 5.68298C30.7671 5.68298 30.8065 5.79869 30.8065 5.94012C30.8065 6.08155 30.8459 6.19727 30.894 6.19727C30.9422 6.19727 30.9815 6.31298 30.9815 6.45441C30.9815 6.59584 31.0209 6.71155 31.0691 6.71155C31.1172 6.71155 31.1566 6.82727 31.1566 6.96869C31.1566 7.11012 31.196 7.22584 31.2441 7.22584C31.2922 7.22584 31.3316 7.34155 31.3316 7.48298C31.3316 7.62441 31.371 7.74012 31.4191 7.74012C31.4673 7.74012 31.5066 7.89441 31.5066 8.08298V8.42584H30.5815C29.834 8.42584 29.6281 8.39832 29.5102 8.2827C29.4038 8.17864 29.3936 8.12995 29.4726 8.10415C29.5324 8.08461 29.5812 7.99478 29.5812 7.90444C29.5812 7.81401 29.6206 7.74012 29.6688 7.74012C29.7169 7.74012 29.7563 7.62441 29.7563 7.48298C29.7563 7.34155 29.7957 7.22584 29.8438 7.22584C29.8919 7.22584 29.9313 7.11012 29.9313 6.96869C29.9313 6.82727 29.9707 6.71155 30.0188 6.71155C30.067 6.71155 30.1063 6.59584 30.1063 6.45441C30.1063 6.31298 30.1457 6.19727 30.1939 6.19727C30.242 6.19727 30.2814 6.12012 30.2814 6.02584C30.2814 5.93155 30.3208 5.85441 30.3689 5.85441C30.417 5.85441 30.4564 5.73869 30.4564 5.59727C30.4564 5.45584 30.4958 5.34012 30.5439 5.34012C30.5921 5.34012 30.6315 5.41727 30.6315 5.51155ZM15.2282 5.76869C15.2282 5.91012 15.2676 6.02584 15.3157 6.02584C15.3639 6.02584 15.4032 6.14155 15.4032 6.28298C15.4032 6.42441 15.4426 6.54012 15.4908 6.54012C15.5389 6.54012 15.5783 6.65584 15.5783 6.79727C15.5783 6.93869 15.6177 7.05441 15.6658 7.05441C15.7139 7.05441 15.7533 7.17012 15.7533 7.31155C15.7533 7.45298 15.7927 7.56869 15.8408 7.56869C15.889 7.56869 15.9284 7.64584 15.9284 7.74012C15.9284 7.83441 15.9677 7.91155 16.0159 7.91155C16.064 7.91155 16.1034 8.02727 16.1034 8.16869V8.42584H15.0532H14.003V8.16869C14.003 8.02727 14.0423 7.91155 14.0905 7.91155C14.1386 7.91155 14.178 7.79584 14.178 7.65441C14.178 7.51298 14.2174 7.39727 14.2655 7.39727C14.3136 7.39727 14.353 7.28155 14.353 7.14012C14.353 6.99869 14.3924 6.88298 14.4405 6.88298C14.4887 6.88298 14.5281 6.80584 14.5281 6.71155C14.5281 6.61727 14.5674 6.54012 14.6156 6.54012C14.6637 6.54012 14.7031 6.42441 14.7031 6.28298C14.7031 6.14155 14.7425 6.02584 14.7906 6.02584C14.8388 6.02584 14.8781 5.91012 14.8781 5.76869C14.8781 5.56872 14.917 5.51155 15.0532 5.51155C15.1894 5.51155 15.2282 5.56872 15.2282 5.76869ZM120.951 7.65441C120.951 7.70155 121.147 7.74012 121.388 7.74012C121.629 7.74012 121.826 7.77869 121.826 7.82584C121.826 7.87298 121.886 7.91155 121.96 7.91155C122.034 7.91155 122.231 8.04526 122.397 8.20872C122.69 8.49518 122.701 8.52904 122.701 9.15158C122.701 9.52486 122.664 9.79727 122.613 9.79727C122.565 9.79727 122.526 9.85786 122.526 9.93192C122.526 10.1052 122.315 10.3116 122.138 10.3116C122.063 10.3116 122.001 10.3501 122.001 10.3973C122.001 10.4444 121.922 10.483 121.826 10.483C121.729 10.483 121.651 10.5216 121.651 10.5687C121.651 10.6201 121.301 10.6544 120.775 10.6544H119.9V9.23652C119.9 8.22424 119.932 7.78375 120.01 7.69692C120.135 7.55755 120.951 7.52078 120.951 7.65441ZM138.979 7.65441C138.979 7.70155 139.176 7.74012 139.417 7.74012C139.658 7.74012 139.855 7.77869 139.855 7.82584C139.855 7.87298 139.915 7.91155 139.989 7.91155C140.209 7.91155 140.73 8.48155 140.73 8.72301C140.73 8.84241 140.769 8.94012 140.817 8.94012C140.865 8.94012 140.905 9.01727 140.905 9.11155C140.905 9.20584 140.865 9.28298 140.817 9.28298C140.769 9.28298 140.73 9.41927 140.73 9.58581C140.73 9.96124 140.248 10.483 139.901 10.483C139.779 10.483 139.679 10.5216 139.679 10.5687C139.679 10.6187 139.388 10.6544 138.979 10.6544H138.279V9.11155V7.56869H138.629C138.822 7.56869 138.979 7.60727 138.979 7.65441ZM93.2947 7.82584C93.2947 7.87298 93.4522 7.91155 93.6448 7.91155C93.8373 7.91155 93.9948 7.95012 93.9948 7.99727C93.9948 8.04441 94.0556 8.08298 94.13 8.08298C94.3833 8.08298 94.695 8.48275 94.695 8.8077C94.695 8.97484 94.7344 9.11155 94.7825 9.11155C94.8306 9.11155 94.87 9.18869 94.87 9.28298C94.87 9.37727 94.8306 9.45441 94.7825 9.45441C94.7344 9.45441 94.695 9.55212 94.695 9.67153C94.695 9.96107 94.1621 10.483 93.8664 10.483C93.7445 10.483 93.6448 10.5216 93.6448 10.5687C93.6448 10.6201 93.2947 10.6544 92.7696 10.6544H91.8944V9.32224C91.8944 8.37852 91.9263 7.95458 92.0038 7.86835C92.1322 7.72555 93.2947 7.68724 93.2947 7.82584ZM234.199 8.16869C234.199 8.21584 234.3 8.25441 234.422 8.25441C234.668 8.25441 235.075 8.59941 235.075 8.8077C235.075 8.88055 235.114 8.94012 235.162 8.94012C235.21 8.94012 235.25 9.13298 235.25 9.36869C235.25 9.60441 235.21 9.79727 235.162 9.79727C235.114 9.79727 235.075 9.85684 235.075 9.92969C235.075 10.138 234.668 10.483 234.422 10.483C234.3 10.483 234.199 10.5216 234.199 10.5687C234.199 10.6201 233.849 10.6544 233.324 10.6544H232.449V9.36869V8.08298H233.324C233.849 8.08298 234.199 8.11727 234.199 8.16869Z" fill="black"/>
</svg>
