<svg width="31" height="31" viewBox="0 0 31 31" fill="none" xmlns="http://www.w3.org/2000/svg">
<path d="M24.873 26.9688L25.2363 24.7891C25.5912 22.6595 24.1922 20.6326 22.0752 20.2092L16.6575 19.1256C16.1397 19.0221 15.6064 19.0221 15.0886 19.1256L9.67088 20.2092C7.55388 20.6326 6.15485 22.6595 6.50977 24.7891L6.87305 26.9688" stroke="black" stroke-width="2"/>
<path d="M10 9C10 6.23858 12.2386 4 15 4H17C19.7614 4 22 6.23858 22 9V11C22 13.7614 19.7614 16 17 16H15C12.2386 16 10 13.7614 10 11V9Z" stroke="black" stroke-width="2"/>
</svg>
