<svg width="40" height="41" viewBox="0 0 40 41" fill="none" xmlns="http://www.w3.org/2000/svg">
<rect y="0.967529" width="40" height="40" rx="20" fill="#F6F7F9"/>
<path d="M31.8727 27.4661C31.8437 27.3929 31.8166 27.3322 31.7914 27.2836C31.375 26.4073 30.5793 25.3317 29.4047 24.0565L29.3799 24.0273L29.3675 24.013L29.3549 23.9983H29.3423C28.8092 23.4045 28.4716 23.0053 28.3303 22.8009C28.0716 22.4115 28.0137 22.0173 28.155 21.618C28.2549 21.3163 28.6301 20.679 29.2797 19.7055C29.6213 19.1895 29.892 18.776 30.0918 18.4644C31.5331 16.2255 32.1579 14.7948 31.9662 14.1718L31.8918 14.0262C31.8418 13.9385 31.7127 13.8583 31.5046 13.7852C31.2961 13.7122 31.0296 13.7001 30.7047 13.7488L27.106 13.7778C27.0477 13.7537 26.9644 13.7559 26.856 13.7852C26.7477 13.8144 26.6935 13.8291 26.6935 13.8291L26.6308 13.8657L26.5811 13.9096C26.5395 13.9387 26.4936 13.9897 26.4436 14.0628C26.3938 14.1356 26.3522 14.221 26.319 14.3183C25.9272 15.4961 25.4817 16.5912 24.9817 17.6034C24.6735 18.2071 24.3904 18.7302 24.1319 19.1731C23.8737 19.6159 23.6571 19.9421 23.4823 20.1512C23.3072 20.3605 23.1492 20.5282 23.0073 20.6549C22.8657 20.7816 22.7575 20.8352 22.6826 20.8156C22.6076 20.796 22.5369 20.7766 22.47 20.7571C22.3534 20.6695 22.2597 20.5503 22.189 20.3994C22.118 20.2485 22.0702 20.0587 22.0452 19.8299C22.0203 19.601 22.0056 19.4041 22.0014 19.2386C21.9975 19.0732 21.9993 18.8394 22.0078 18.5376C22.0164 18.2357 22.0203 18.0315 22.0203 17.9244C22.0203 17.5545 22.0265 17.1529 22.0389 16.7198C22.0515 16.2866 22.0617 15.9434 22.0702 15.6906C22.0787 15.4375 22.0827 15.1697 22.0827 14.8874C22.0827 14.6051 22.068 14.3837 22.0389 14.2231C22.0102 14.0626 21.9661 13.9068 21.908 13.7558C21.8496 13.6049 21.7641 13.4882 21.6519 13.4054C21.5394 13.3226 21.3996 13.257 21.2333 13.2082C20.7917 13.0914 20.2294 13.0283 19.5462 13.0184C17.9968 12.999 17.0012 13.1159 16.5597 13.369C16.3848 13.4759 16.2265 13.622 16.0849 13.8069C15.9349 14.0211 15.914 14.138 16.0223 14.1572C16.5222 14.2447 16.8761 14.4541 17.0844 14.785L17.1595 14.9603C17.2178 15.0869 17.2761 15.3109 17.3345 15.632C17.3927 15.9532 17.4303 16.3085 17.4469 16.6976C17.4885 17.4083 17.4885 18.0167 17.4469 18.5228C17.4052 19.0291 17.3658 19.4232 17.3282 19.7055C17.2906 19.9878 17.2344 20.2166 17.1595 20.3917C17.0844 20.5669 17.0345 20.674 17.0094 20.7129C16.9844 20.7518 16.9636 20.7763 16.9471 20.7859C16.8388 20.8344 16.7262 20.8591 16.6096 20.8591C16.4929 20.8591 16.3513 20.7908 16.1848 20.6545C16.0182 20.5182 15.8454 20.3309 15.6663 20.0924C15.4871 19.8538 15.2851 19.5204 15.0601 19.0921C14.8353 18.6639 14.602 18.1578 14.3604 17.5737L14.1605 17.1502C14.0355 16.8777 13.8649 16.481 13.6483 15.9603C13.4315 15.4394 13.24 14.9356 13.0734 14.4489C13.0068 14.2445 12.9068 14.0889 12.7736 13.9818L12.711 13.9378C12.6695 13.899 12.6027 13.8577 12.5111 13.8137C12.4195 13.7698 12.3238 13.7383 12.2237 13.7189L8.79988 13.748C8.45001 13.748 8.21262 13.8406 8.08762 14.0255L8.0376 14.113C8.0126 14.1618 8 14.2396 8 14.3468C8 14.4538 8.02499 14.5853 8.07502 14.7409C8.57483 16.1135 9.11838 17.4373 9.70564 18.7124C10.2929 19.9876 10.8032 21.0147 11.2363 21.793C11.6695 22.5718 12.111 23.3068 12.5609 23.9978C13.0107 24.6889 13.3085 25.1319 13.4542 25.3264C13.6001 25.5214 13.7147 25.6671 13.798 25.7645L14.1104 26.1148C14.3104 26.3485 14.6039 26.6283 14.9913 26.9544C15.3788 27.2806 15.8078 27.6017 16.2784 27.9184C16.7492 28.2345 17.2968 28.4924 17.9217 28.6919C18.5465 28.8916 19.1546 28.9717 19.7461 28.9331H21.1831C21.4746 28.9037 21.6954 28.7966 21.8455 28.6118L21.8952 28.5386C21.9286 28.4805 21.9599 28.3902 21.9888 28.2688C22.018 28.1471 22.0326 28.0131 22.0326 27.8673C22.024 27.4488 22.0513 27.0716 22.1136 26.7358C22.1759 26.4001 22.2469 26.147 22.3263 25.9766C22.4056 25.8063 22.4952 25.6626 22.5948 25.5461C22.6947 25.4293 22.7659 25.3586 22.8076 25.3343C22.8491 25.3098 22.8822 25.2932 22.9072 25.2832C23.1072 25.2053 23.3425 25.2807 23.6135 25.5097C23.8842 25.7384 24.1382 26.0209 24.3758 26.3566C24.6132 26.6926 24.8985 27.0695 25.2317 27.488C25.565 27.9066 25.8565 28.2178 26.1063 28.4225L26.3562 28.5978C26.523 28.7147 26.7396 28.8217 27.0062 28.9191C27.2724 29.0163 27.5056 29.0407 27.7058 28.992L30.9046 28.9337C31.221 28.9337 31.4672 28.8725 31.6418 28.7511C31.8168 28.6294 31.9207 28.4954 31.9543 28.3496C31.9877 28.2036 31.9895 28.038 31.9606 27.8529C31.931 27.6682 31.9018 27.5391 31.8727 27.4661Z" fill="black"/>
</svg>
