<svg width="26" height="26" viewBox="0 0 26 26" fill="none" xmlns="http://www.w3.org/2000/svg">
<path d="M0 6.51562C0 2.92577 2.91015 0.015625 6.5 0.015625H12V5.51562C12 9.10548 9.08985 12.0156 5.5 12.0156H0V6.51562Z" fill="black"/>
<path d="M0 18.5156C0 22.1055 2.91015 25.0156 6.5 25.0156H12V19.5156C12 15.9258 9.08985 13.0156 5.5 13.0156H0V18.5156Z" fill="black"/>
<path d="M26 6.51562C26 2.92577 23.0899 0.015625 19.5 0.015625H13V5.51562C13 9.10548 15.9101 12.0156 19.5 12.0156H26V6.51562Z" fill="black"/>
<path d="M26 18.5156C26 22.1055 23.0899 25.0156 19.5 25.0156H13V19.5156C13 15.9258 15.9101 13.0156 19.5 13.0156H26V18.5156Z" fill="black"/>
</svg>
